<svg width="0" height="0" class="hidden">
  <symbol fill="none" xmlns="http://www.w3.org/2000/svg" viewBox="0 0 24 24" id="almond">
    <path d="M11.268 19.194a.463.463 0 00-.581.314 5.011 5.011 0 01-4.772 3.553 4.987 4.987 0 01-4.978-4.978c0-3.68 1.294-7.265 3.647-10.096l.792-.952a.695.695 0 01.535-.253c.206 0 .403.094.534.253l.792.952a15.814 15.814 0 013.44 7.537.468.468 0 00.924-.155 16.78 16.78 0 00-3.642-7.982l-.788-.956a1.625 1.625 0 00-1.256-.59c-.487 0-.947.215-1.256.59l-.792.951A16.775 16.775 0 000 18.083a5.921 5.921 0 005.915 5.915 5.869 5.869 0 003.567-1.195 5.974 5.974 0 002.105-3.023.473.473 0 00-.319-.586z" fill="#000"></path>
    <path d="M5.69 11.854a.467.467 0 00-.192.633 11.934 11.934 0 011.373 4.687.47.47 0 00.47.431h.037a.467.467 0 00.43-.501 12.695 12.695 0 00-1.48-5.058.47.47 0 00-.638-.192zm.225 8.16a.47.47 0 00.469-.468.47.47 0 00-.469-.469 1 1 0 01-.998-.998c0-.586.042-1.177.131-1.753a.468.468 0 00-.394-.535.468.468 0 00-.534.394c-.094.623-.14 1.26-.14 1.894 0 1.068.867 1.935 1.935 1.935zm0 1.992a3.928 3.928 0 003.923-3.923.47.47 0 00-.468-.468.47.47 0 00-.469.468 2.99 2.99 0 01-2.986 2.986.47.47 0 00-.468.469c0 .258.21.468.468.468zm3.056-6.801a.47.47 0 00.46-.581 14.831 14.831 0 00-1.514-3.83.469.469 0 00-.816.46 13.926 13.926 0 011.42 3.586.46.46 0 00.45.365zM4.11 11.404a.47.47 0 00-.627.216 14.856 14.856 0 00-1.49 6.458c0 .258.21.47.468.47a.47.47 0 00.469-.47c0-2.08.482-4.171 1.396-6.046a.474.474 0 00-.215-.628zm19.884 1.856l-.113-1.233A16.777 16.777 0 0019.053 1.73a5.918 5.918 0 00-8.362 0 5.918 5.918 0 000 8.361 16.784 16.784 0 0010.298 4.833l1.233.113c.052.004.103.004.15.004.431 0 .844-.168 1.153-.478.338-.342.51-.82.469-1.303zm-1.14.642a.703.703 0 01-.557.202l-1.233-.113a15.822 15.822 0 01-9.716-4.56 4.985 4.985 0 010-7.04 4.938 4.938 0 013.52-1.458 4.94 4.94 0 013.52 1.457 15.833 15.833 0 014.56 9.717l.113 1.233a.71.71 0 01-.206.562z" fill="#000"></path>
    <path d="M14.863 4.917c.267 0 .516.103.703.29.413.413.802.863 1.149 1.332a.468.468 0 10.754-.558 12.603 12.603 0 00-1.237-1.44 1.918 1.918 0 00-1.369-.566c-.515 0-1.003.201-1.368.567a.467.467 0 10.66.66c.193-.182.446-.285.708-.285zm4.251 4.659a12.023 12.023 0 01-4.288-2.344.468.468 0 10-.61.713 12.722 12.722 0 004.627 2.53.471.471 0 00.586-.314.476.476 0 00-.315-.585zm-1.476-6.44a.467.467 0 10-.661.66 13.933 13.933 0 013.29 5.264.469.469 0 00.6.286.47.47 0 00.291-.595 14.884 14.884 0 00-3.52-5.615zm1.219 8.437a13.716 13.716 0 01-3.54-1.533.465.465 0 00-.641.155.465.465 0 00.154.642 14.69 14.69 0 003.778 1.636.465.465 0 00.576-.323.47.47 0 00-.327-.577zm-6.103-8.437a.467.467 0 00-.661 0 3.932 3.932 0 000 5.55.46.46 0 00.333.135.467.467 0 00.333-.797 2.993 2.993 0 010-4.223.477.477 0 00-.005-.665zm-1.402 13.939a.464.464 0 00-.469.469.464.464 0 00.469.469.464.464 0 00.469-.469.484.484 0 00-.136-.333.472.472 0 00-.333-.136z" fill="#000"></path>
  </symbol>
  <symbol fill="none" xmlns="http://www.w3.org/2000/svg" viewBox="0 0 24 25" id="apitherapy">
    <path d="M.188 21.55c3.48 2.177 3.25 2.064 3.414 2.064.164 0-.042.094 3.204-1.928 3.25 2.031 3.044 1.928 3.203 1.928.16 0 0 .07 2.617-1.566a.402.402 0 00-.427-.68l-2.195 1.374-2.8-1.75v-2.758l1.464-.914a.402.402 0 00-.427-.68l-1.435.9-2.8-1.75v-2.757l2.8-1.75c1.561.976 1.458.93 1.57.948a.402.402 0 00.446-.244.4.4 0 00-.154-.483l-1.464-.915V7.832l2.8-1.75 2.8 1.75v.576a.398.398 0 10.798 0v-.576l2.8-1.75 2.8 1.75v2.978a.398.398 0 10.797 0V7.606a.395.395 0 00-.187-.337l-3.016-1.886V2.4a.395.395 0 00-.188-.337L13.418.06a.402.402 0 00-.421 0l-2.988 1.867L7.017.06a.402.402 0 00-.423 0L3.391 2.063a.401.401 0 00-.188.337v2.98L.188 7.264A.401.401 0 000 7.602v3.203c0 .136.07.268.188.338l3.015 1.885v2.758L.188 17.672a.401.401 0 00-.188.337v3.204c0 .136.07.262.188.337zM13.208.872l2.8 1.75V5.38l-2.8 1.749-2.8-1.75V2.622l2.8-1.75zm-6.402 0l2.8 1.75V5.38l-2.8 1.749-2.8-1.75V2.622l2.8-1.75zM.802 7.827l2.8-1.75 2.8 1.75v2.758l-2.8 1.75-2.8-1.75V7.827zm0 10.403l2.8-1.75 2.8 1.75v2.758l-2.8 1.75-2.8-1.75V18.23z" fill="#000"></path>
    <path d="M18.41 12.01v-.403a2.42 2.42 0 00-.84-1.824l.398-.802a.4.4 0 00-.717-.357l-.37.746a2.384 2.384 0 00-1.746 0l-.37-.746a.397.397 0 00-.333-.225.4.4 0 00-.385.582l.399.802a2.395 2.395 0 00-.844 1.824v.404c-.366-.005-.76-.005-1.201-.005-2.125 0-4.404.966-4.404 2.401 0 1.726 3.25 2.631 4.868 2.36-.037.318-.065.755-.065 1.045 0 2.8 1.2 5.038 2.8 5.361v.446a.398.398 0 10.797 0v-.45c1.6-.324 2.8-2.561 2.8-5.361 0-.286-.028-.727-.066-1.042 1.637.273 4.869-.642 4.869-2.359 0-1.435-2.275-2.401-4.404-2.401-.404 0-.811 0-1.187.005zm-4.002-.403a1.598 1.598 0 113.2 0v.422c-.54-.01-1.084.07-1.6.23a4.765 4.765 0 00-1.604-.23v-.422h.005zm1.604 2.552c.188.375.418.727.69 1.046h-1.384a5.63 5.63 0 00.694-1.046zm-7.208.248c0-.722 1.66-1.6 3.602-1.6.802 0 2.692-.013 3.19.146-.137.962-1.535 3.058-3.19 3.058-1.937-.004-3.602-.881-3.602-1.604zm5.689 1.6h3.025c.244.192.507.356.783.492l.043.31h-2.735a.398.398 0 100 .797h2.79c.02.267.015.535-.013.802H13.63a4.573 4.573 0 01-.014-.802h.39a.398.398 0 100-.797h-.334l.042-.32c.282-.13.54-.29.779-.482zm-.286 4.802h1.8a.398.398 0 100-.797h-2.096a7.631 7.631 0 01-.183-.802h4.564c-.047.272-.108.54-.183.802h-.497a.398.398 0 100 .797h.202c-.976 2.134-2.632 2.134-3.607 0zm9.005-6.402c0 .995-2.974 1.998-4.4 1.445a4.403 4.403 0 01-2.391-2.899c.576-.173 2.307-.145 3.189-.15 1.942.005 3.602.882 3.602 1.604z" fill="#000"></path>
  </symbol>
  <symbol fill="none" xmlns="http://www.w3.org/2000/svg" viewBox="0 0 24 19" id="beans">
    <path d="M11.367 3.056a.477.477 0 00-.67-.075 1.374 1.374 0 01-1.725 0 .477.477 0 10-.595.746c.412.332.932.51 1.462.51.53 0 1.05-.182 1.463-.51a.484.484 0 00.065-.67z" fill="#000"></path>
    <path d="M23.653 9.802a5.68 5.68 0 00-1.926-2.616 5.381 5.381 0 00-2.096-.947 5.761 5.761 0 00-1.284-4.252C17.287.707 15.764 0 14.057 0h-.276c-1.195 0-2.353.422-3.351 1.223a.965.965 0 01-.6.211.965.965 0 01-.6-.21C8.236.421 7.078 0 5.883 0h-.277C4.373 0 3.22.375 2.273 1.078A5.592 5.592 0 00.347 3.694a5.582 5.582 0 00-.192 3.225c.272 1.144.914 2.16 1.856 2.948.717.6 1.505 1.116 2.339 1.533a5.584 5.584 0 00.14 1.627c.272 1.143.915 2.16 1.857 2.948a12.225 12.225 0 0015.647 0c.942-.787 1.584-1.805 1.856-2.948a5.583 5.583 0 00-.197-3.225zm-19.153.6a11.218 11.218 0 01-1.88-1.27C.792 7.607.712 5.488 1.242 4.016c.535-1.481 1.964-3.06 4.36-3.06h.276c.975 0 1.927.35 2.752 1.012.337.272.764.422 1.195.422.431 0 .858-.15 1.195-.422.825-.666 1.777-1.013 2.752-1.013h.276c1.416 0 2.677.582 3.554 1.64a4.796 4.796 0 011.073 3.516 5.827 5.827 0 00-.29-.009h-.277c-1.195 0-2.353.422-3.352 1.224a.965.965 0 01-.6.21.965.965 0 01-.6-.21c-.998-.802-2.156-1.224-3.351-1.224h-.277A5.554 5.554 0 006.595 7.18 5.592 5.592 0 004.67 9.797a9.69 9.69 0 00-.169.605zm16.88 4.837a11.276 11.276 0 01-7.21 2.611c-2.63 0-5.198-.928-7.214-2.61-1.828-1.524-1.908-3.643-1.378-5.115.534-1.481 1.964-3.06 4.36-3.06h.276c.975 0 1.927.35 2.752 1.012a1.92 1.92 0 001.195.421c.431 0 .858-.15 1.195-.421.825-.666 1.777-1.013 2.752-1.013h.276c2.396 0 3.825 1.584 4.36 3.061.544 1.472.464 3.59-1.364 5.114z" fill="#000"></path>
    <path d="M15.623 9.098a.477.477 0 00-.67-.075 1.373 1.373 0 01-1.725 0 .477.477 0 10-.595.746c.412.333.933.51 1.462.51.53 0 1.05-.182 1.463-.51a.476.476 0 00.065-.67zm3.694 6.347a.476.476 0 00-.642-.206 9.792 9.792 0 01-4.505 1.083.48.48 0 00-.478.478.48.48 0 00.478.478c1.74 0 3.403-.398 4.94-1.19a.479.479 0 00.207-.643zm1.852-1.35a.481.481 0 00-.675-.06 17.1 17.1 0 01-.338.271.478.478 0 10.582.76c.126-.094.248-.197.37-.296a.482.482 0 00.06-.675z" fill="#000"></path>
  </symbol>
  <symbol fill="none" xmlns="http://www.w3.org/2000/svg" viewBox="0 0 32 32" id="grape">
    <path d="M20.443 16.714c2.16-1.489 1.653-5.2-.935-5.913-.183-.052-.91-.024-1-.108-.146-.141-.235-.813-.348-1.02a3.256 3.256 0 00-1.446-1.366c-1.268-.61-2.8-.348-3.743.709-.912-1.23-2.499-1.606-3.87-.944A3.412 3.412 0 007.626 9.42c-.174.3-.3.625-.371.967-.08.41.023.785-.01 1.184-.023.277.043.22-.258.334a3.338 3.338 0 00-.493.239 3.205 3.205 0 00-.892.813 3.487 3.487 0 00-.681 2.179 3.285 3.285 0 00.47 1.597c.046.075.154.188.178.263.07.216.07.042-.033.249-.197.385-.56.662-.733 1.084a3.416 3.416 0 00.005 2.621c.08.193.211.357.296.545.07.155.127.141.089.272-.019.062-.282.254-.32.296A3.43 3.43 0 004 24.374c.014 1.818 1.508 3.34 3.349 3.245a3.256 3.256 0 002.193-1.014c.085-.09.315-.526.413-.559.08-.023.489.188.573.212.432.112.888.126 1.33.047a3.266 3.266 0 002.061-1.292c.137-.183.212-.413.343-.592.033-.042.057-.22.099-.244.019-.01.305.084.366.094.48.094.982.07 1.456-.061a3.32 3.32 0 001.343-.756c.104-.099.418-.606.531-.649.127-.042.554.146.705.165.995.108 2.005-.287 2.69-1.01 1.48-1.578.968-4.32-1.009-5.246.127-.09.254-.174.38-.263-.126.09-.253.174-.38.263zm-2.64-3.363a2.32 2.32 0 00.315-.456c.028-.046.052-.093.075-.145a3.26 3.26 0 00.263-.714c.08-.343.01-.39.348-.423.324-.028.714.132.982.292.54.324.892.887 1.033 1.493a2.62 2.62 0 01-.207 1.78c-.15.291-.366.545-.63.737-.088.066-.873.442-.873.357v-.047a2.47 2.47 0 00-.01-.333c0-.019-.004-.033-.004-.052v-.01a3.31 3.31 0 00-1.38-2.39c.032-.023.06-.056.088-.089.015-.014-.028.033 0 0 .118-.136-.028.033 0 0zm-.065 1.395a2.576 2.576 0 01.3.554c.01.024.014.042.024.066.005.01.005.019.01.028l.013.042c.052.15.075.31.099.465 0 .024.005.043.005.066 0 .01 0 .024.004.033 0 .023.005.042.005.066v.014c.01.202.005.441-.061.634-.005.019-.005.037-.01.052-.333.807-.85 1.526-1.756 1.719-.564.122-1.245.018-1.714-.334-.038-.023-.075-.052-.108-.075-.963-.733-1.142-2.053-.569-3.086.592-1.07 1.672-1.385 2.79-1.01.024.01.047.024.07.033.024.01.048.024.071.033.005 0 .01.005.014.005.066.033.132.07.193.113.056.037.113.075.169.117.052.038.099.08.146.127.009.01.018.014.023.023.066.052.258.287.282.315.005.01-.028-.038 0 0zm-4.922.507a3.821 3.821 0 00-.07.315c-.668.019-1.255-.277-1.715-.742a2.404 2.404 0 01-.573-1.118c-.437-1.146.625-2.536 1.69-2.804a3.36 3.36 0 001.382 3.048 3.36 3.36 0 00-.714 1.306l.056-.202-.056.197c-.029.104.136-.483 0 0zm.68 3.09c-.53.376-1.01.959-1.192 1.593a2.212 2.212 0 01-.226-.066 2.256 2.256 0 00-.662-.09c-.09 0-.178 0-.268.005a.96.96 0 01-.206.02.924.924 0 00-.165.023h-.01a.189.189 0 01-.07.014c-.765-.418-1.272-1.282-1.23-2.16v-.005c0-.024 0-.047.005-.07v-.01c0-.019.004-.038.004-.052v-.005c.005-.065.01-.154.028-.22.015-.09.038-.179.062-.263 0-.005 0-.005.004-.01 0-.004.005-.01.005-.014.047-.16.117-.3.188-.45.037-.066.075-.132.122-.198.122-.188.277-.357.456-.498a.638.638 0 01.169-.127.319.319 0 01.056-.037.18.18 0 01.042-.024 3.137 3.137 0 002.085.794h.015c.014.179.033.437.117.601.01.033.019.066.033.104 0 .004.005.004.005.009.009.033.023.066.033.103.131.376.338.728.6 1.034zm-.159-8.247c0-.004.005-.01.005-.014v-.005c1.117-2.047 4.26-1.131 4.288 1.137v.019c0 .545-.188 1.07-.517 1.498l-.01.01a2.32 2.32 0 01-.253.272c-.62-.202-1.475-.24-2.076.061-.09.033-.432.254-.507.249-.122-.005-.31-.207-.395-.277a2.317 2.317 0 01-.629-.855c0-.005-.005-.01-.005-.01-.281-.666-.216-1.521.08-2.066-.023.056-.019.047.019-.019 0-.004-.07.132 0 0zM10.411 8.64c.84 0 1.61.48 2.01 1.23-.005.01-.005.015-.01.024l-.013.033c-1.64.155-2.894 1.62-2.917 3.246a1.997 1.997 0 01-.526-.334c-.019-.014-.033-.028-.052-.042-1.69-1.273-.498-4.157 1.508-4.157zM7.64 12.68c.005.004.005.009.01.014.056.098.14.253.225.338l.037.051.029.033c.014.014.023.033.037.047.249.3.578.587.935.761.188.099.568.146.714.277.15.132.249.606.366.794a2.35 2.35 0 00-.446.362c-.01.004-.014.014-.024.018l-.037.038a3.26 3.26 0 00-.545.737c0 .005-.005.01-.005.01a.171.171 0 00-.07.136c-.01.023-.024.047-.033.07v.005a3.09 3.09 0 00-.09.22c-.023.062-.051.128-.06.193l-.015.057-.014.056c0 .005-.004.014-.004.019a.137.137 0 00-.01.042v.01c-.023.103-.033.21-.06.314v.029l-.076.013a2.184 2.184 0 01-.554.024h-.005c-.023 0-.042-.005-.066-.005h-.014a2.286 2.286 0 01-.798-.253.845.845 0 00-.127-.07c-.023-.015-.047-.029-.07-.048-.02-.014-.038-.023-.052-.037h-.005l-.136-.108c-1.437-1.198-.892-3.744.963-4.148-.01-.014-.404.09-.46.104.155-.042.31-.07.46-.104.005.005-1.038.226 0 0zm-1.278 5.072c.16.108.475.338.672.338a3.1 3.1 0 00.897.188c.15.01.329.023.48-.01.112-.07.168-.075.168-.018.075.483.259 1.07.587 1.446.146.202.31.385.498.55l.005.005c-.47.29-1.362 1.06-1.362 1.68a2.04 2.04 0 01-.338.062c-.01 0-.02 0-.029.005-2.254.206-3.31-2.884-1.578-4.246.005.005-.21.225-.244.202 0 0 .315-.254.244-.202.08.052-.563.446 0 0zm.836 8.966c-1.188 0-2.099-.944-2.24-2.095a2.429 2.429 0 01.324-1.564c.118-.193.334-.535.554-.61.259-.09.738.248 1.043.352a2.9 2.9 0 001.062.117l.178-.014c-.024.4.028.831.164 1.207.052.165.113.343.202.489a2.7 2.7 0 00.47.685c.235.273.263.259.028.56a2.25 2.25 0 01-1.785.874zm6.388-3.25c0 .004 0 .004 0 0-.291 1.78-2.48 2.588-3.8 1.329-.591-.568-.939-1.405-.723-2.217.207-.765.836-1.677 1.695-1.803.428-.113 1.292-.15 1.64.197h.004c.883.483 1.339 1.582 1.189 2.46.004-.042.004-.032-.005.034 0 .004.019-.127 0 0zm1.747-.052a2.21 2.21 0 01-.798-.15 2.323 2.323 0 000-.4 4.073 4.073 0 00-.052-.408.543.543 0 00-.019-.085v-.004c-.005-.024-.01-.052-.019-.075v-.005c-.117-.432-.352-1.17-.751-1.437a.736.736 0 00-.056-.061l-.029-.033a3.1 3.1 0 00-.465-.4c0-.004.005-.009.005-.014l.014-.042c.043-.14.108-.291.183-.423a2.124 2.124 0 01.475-.605c.01-.01.018-.02.033-.029a.075.075 0 01.018-.014c.01-.01.024-.019.033-.028a1.8 1.8 0 01.334-.23c.507.32 1.08.479 1.681.479v.019c-.028.47.038.94.197 1.38.09.245.334.893.592 1.024a.05.05 0 00.024.024 2.953 2.953 0 00.343.338c.202.07.216.164.051.287-.07.173-.329.347-.474.455-.39.282-.846.437-1.32.437zm3.78-1.338c-1.427 0-2.474-1.395-2.258-2.767.418-.131.948-.376 1.226-.728.032-.033.065-.06.094-.094l.014-.014a1.97 1.97 0 00.122-.136c.014-.014.023-.028.037-.042a3.116 3.116 0 00.53-.897l.015-.038c1.31-.127 2.456.982 2.503 2.269.047 1.263-.981 2.447-2.282 2.447zm5.332-11.328a.461.461 0 11.001-.923.461.461 0 01-.001.922z" fill="#000"></path>
    <path d="M27.803 11.839c-.414-1.7-1.649-3.152-3.678-4.321.291-.442 1.8-3.33.728-3.509-.653-.108-.648 1.029-.77 1.428-.207.681-.512 1.334-.953 1.898-.855 1.122-2.278 1.756-3.673 1.756-.395-.023-.634.475-.371.77.183.202.493.16.742.146a5.7 5.7 0 002.578-.812c-.887 3.297 1.297 5.762 3.899 7.43.004.004.009.004.014.01.075.046.183.07.272.06.005 0 .014 0 .023-.005.02 0 .033-.004.052-.009.028-.005.056-.019.085-.028.004 0 .004-.005.01-.005.004 0 .004-.005.009-.005a.434.434 0 00.164-.14s.005-.005.005-.01c.051-.084 1.47-2.16.864-4.654-.414-1.7.606 2.494 0 0zm-1.15 3.165a85.674 85.674 0 00-.762-2.348c-.127-.376-.286-1.292-.78-1.348-.803-.09-.366.869-.234 1.235.3.836.563 1.691.831 2.537-1.038-.804-2.029-1.813-2.423-3.096-.386-1.24-.076-2.489.39-3.658 2.442 1.409 4.09 3.813 2.977 6.678-.385-1.226 0 0 0 0z" fill="#000"></path>
  </symbol>
  <symbol fill="none" xmlns="http://www.w3.org/2000/svg" viewBox="0 0 32 32" id="nut">
    <path d="M25.89 9.773a.37.37 0 00-.605.422c1.286 1.828 1.967 3.928 1.967 6.082 0 2.787-1.146 5.482-3.233 7.597-1.573 1.592-3.597 2.782-5.851 3.458-.451-.364-.724-1.089-.85-2.283a2.561 2.561 0 003.746-.269c.063.005.125.005.188.005a2.574 2.574 0 002.494-3.199 4.124 4.124 0 001.717-1.323c.537-.71.82-1.56.82-2.451 0-.888-.288-1.746-.815-2.451.513-.48.81-1.156.81-1.875a2.556 2.556 0 00-2.091-2.523 2.565 2.565 0 00-1.885-2.413 2.961 2.961 0 00-2.849-2.158c-.657 0-1.266.216-1.755.58.273-.647.647-1.194 1.098-1.554 2.182.763 4.115 2.015 5.597 3.655a.371.371 0 00.552-.494c-2.22-2.45-5.381-4.081-8.897-4.575a.389.389 0 00-.106 0c-3.29.465-6.307 1.942-8.494 4.158C5.223 10.416 4 13.299 4 16.277c0 2.978 1.223 5.86 3.448 8.115 2.187 2.216 5.204 3.693 8.5 4.158.018.005.033.005.052.005.02 0 .034 0 .053-.005 3.29-.465 6.307-1.942 8.499-4.158C26.772 22.138 28 19.255 28 16.277c-.01-2.302-.734-4.552-2.11-6.504zm-6.437-2.638c1.065 0 1.981.758 2.178 1.799a.368.368 0 00.297.293 1.824 1.824 0 011.51 1.707 2.546 2.546 0 00-1.553.739.37.37 0 00.259.633.364.364 0 00.259-.11 1.821 1.821 0 011.295-.538c.01 0 .019 0 .024-.005.019.005.033.005.053.005.983.043 1.75.844 1.75 1.828 0 .508-.21.983-.57 1.328a4.014 4.014 0 00-2.754-1.079.366.366 0 00-.369.37c0 .206.163.369.37.369a3.32 3.32 0 012.364.978c.02.02.038.034.058.048a.517.517 0 00.043.062 3.32 3.32 0 01.873 2.255 3.31 3.31 0 01-.672 2.01 3.4 3.4 0 01-1.41 1.083 2.567 2.567 0 00-2.211-1.256c-.686 0-1.333.268-1.818.753a.37.37 0 00.523.522 1.821 1.821 0 011.295-.537 1.826 1.826 0 011.832 1.827c0 .93-.695 1.698-1.597 1.813a2.61 2.61 0 00.149-.863.366.366 0 00-.37-.37.366.366 0 00-.369.37 1.833 1.833 0 01-1.827 1.827 1.835 1.835 0 01-1.832-1.832c0-.508.206-.983.575-1.333a.369.369 0 00.038-.494 2.864 2.864 0 01-.613-1.784c0-.902.407-1.736 1.117-2.293l.01-.01a2.875 2.875 0 011.78-.608.367.367 0 00.368-.37.366.366 0 00-.369-.37c-.715 0-1.39.202-1.98.586a3.444 3.444 0 01-.922-2.34c0-.912.355-1.765.993-2.413 0 0 0-.005.005-.005a3.418 3.418 0 012.437-1.017.366.366 0 00.369-.369.366.366 0 00-.37-.37 4.136 4.136 0 00-2.719 1.008 2.225 2.225 0 01-.715-1.63 2.22 2.22 0 012.216-2.217zM4.74 16.277c0-2.787 1.146-5.482 3.232-7.597 1.425-1.444 3.223-2.556 5.223-3.257.451.36.83.902 1.099 1.55a2.96 2.96 0 00-4.605 1.582 2.566 2.566 0 00-1.885 2.413 2.564 2.564 0 00-2.09 2.522c0 .715.297 1.391.81 1.876a4.078 4.078 0 00-.806 2.714c.014.202.192.36.393.346a.37.37 0 00.346-.394c-.005-.072-.005-.143-.005-.215 0-.835.312-1.636.873-2.255a.183.183 0 00.043-.062.415.415 0 00.057-.048 3.32 3.32 0 012.365-.978c.206 0 .37-.163.37-.37a.366.366 0 00-.37-.369 4.05 4.05 0 00-2.767 1.084 1.83 1.83 0 011.18-3.156c.019 0 .033-.005.052-.005.01.005.02.005.024.005.49 0 .95.192 1.295.537.072.072.168.11.26.11a.37.37 0 00.259-.633 2.547 2.547 0 00-1.555-.738 1.828 1.828 0 011.511-1.708.362.362 0 00.297-.292 2.224 2.224 0 012.178-1.799c1.223 0 2.22.998 2.22 2.22 0 .624-.263 1.21-.714 1.632a4.136 4.136 0 00-2.72-1.008.366.366 0 00-.369.37c0 .206.163.369.37.369a3.398 3.398 0 012.44 1.022c.643.647.993 1.506.993 2.412a3.43 3.43 0 01-.93 2.345 3.602 3.602 0 00-1.98-.585.366.366 0 00-.37.37c0 .206.163.369.37.369.651 0 1.265.21 1.778.609l.01.01a2.895 2.895 0 011.118 2.292c0 .652-.211 1.271-.614 1.784a.369.369 0 00.038.494c.37.35.576.825.576 1.334 0 1.007-.82 1.832-1.833 1.832a1.827 1.827 0 01-1.827-1.828.366.366 0 00-.37-.369.366.366 0 00-.368.37c0 .297.052.59.148.863a1.833 1.833 0 01-1.597-1.813 1.826 1.826 0 011.832-1.827c.49 0 .95.191 1.295.537a.37.37 0 00.523-.523 2.573 2.573 0 00-4.029.504 3.376 3.376 0 01-1.75-1.64.375.375 0 00-.494-.174.375.375 0 00-.173.494 4.106 4.106 0 002.13 2 2.574 2.574 0 002.494 3.2c.062 0 .124 0 .187-.005a2.561 2.561 0 003.745.268c-.124 1.195-.398 1.914-.849 2.283-2.254-.676-4.278-1.865-5.851-3.458-2.062-2.134-3.213-4.83-3.213-7.616zm11.256 11.535c-.46-.067-.911-.154-1.357-.26.604-.776.858-2.129.858-4.383 0-.595-.21-1.175-.585-1.63.384-.59.585-1.272.585-1.981 0-.988-.393-1.919-1.088-2.6a4.184 4.184 0 001.088-2.81c0-.97-.33-1.89-.935-2.634.59-.556.935-1.338.935-2.158 0-.93-.182-1.851-.522-2.671-.255-.605-.58-1.118-.964-1.516A15.288 15.288 0 0116 4.742c.681.1 1.343.24 1.99.427a4.89 4.89 0 00-.964 1.516 7.017 7.017 0 00-.522 2.671c0 .82.345 1.602.935 2.158a4.157 4.157 0 00-.935 2.634c0 1.04.393 2.047 1.088 2.81a3.626 3.626 0 00-1.088 2.6c0 .714.201 1.39.585 1.98a2.582 2.582 0 00-.585 1.631c0 2.25.254 3.602.858 4.384-.455.105-.906.192-1.367.259z" fill="#000"></path>
  </symbol>
  <symbol fill="none" xmlns="http://www.w3.org/2000/svg" viewBox="0 0 32 32" id="washing-powder">
    <path d="M8.481 11.45a.469.469 0 100-.938.469.469 0 000 .938zm3.007 0a.469.469 0 100-.937.469.469 0 000 .937zm-1.507 1.969a.469.469 0 100-.938.469.469 0 000 .938zm3.007 0a.469.469 0 100-.938.469.469 0 000 .938zm-9.05 0a.469.469 0 100-.938.469.469 0 000 .938zm3.037 0a.469.469 0 100-.938.469.469 0 000 .938zm3.006-3.944a.469.469 0 100-.938.469.469 0 000 .938zm-3.006 0a.469.469 0 100-.938.469.469 0 000 .938zM5.506 11.45a.469.469 0 100-.938.469.469 0 000 .938z" fill="#000"></path>
    <path d="M30.525 14.019h-4.469a.468.468 0 100 .937h4.469a.53.53 0 01.531.532v.156a.53.53 0 01-.444.525L16.42 18.53a.47.47 0 00-.394.463V21.5a3.542 3.542 0 01-3.537 3.538h-8.02A3.542 3.542 0 01.932 21.5v-6.544h22.813a.468.468 0 100-.937h-6.938a21.93 21.93 0 00-2.062-3.806C12.856 7.456 10.688 6 8.48 6 6.275 6 4.1 7.456 2.206 10.213.813 12.238.056 14.238.025 14.319v.006c-.006.013-.006.025-.013.038 0 .006 0 .006-.006.012C0 14.387 0 14.4 0 14.419V21.5a4.478 4.478 0 004.475 4.475h8.019a4.478 4.478 0 004.475-4.475v-2.106l13.8-2.3A1.47 1.47 0 0032 15.644v-.156a1.48 1.48 0 00-1.475-1.47zM8.481 6.937c3.832 0 6.488 5.232 7.313 7.075H1.169c.819-1.843 3.475-7.075 7.312-7.075z" fill="#000"></path>
  </symbol>
</svg>