<svg width="0" height="0" class="hidden">
  <symbol fill="none" xmlns="http://www.w3.org/2000/svg" viewBox="0 0 40 32" id="auto">
    <path d="M6.848 12.633l2.164-1.731h.216c.65 0 1.082-.433 1.082-1.082 0-.433-.216-.65-.433-.866V4.41H8.795v4.544c-.433.216-.649.433-.649.866v.216l-2.164 1.731.866.866z" fill="#C6F7FF"></path>
    <path d="M39.74 24.319v-6.925c0-2.164-.865-3.03-.865-3.03s-2.164-2.813-3.462-4.544c-1.299-1.732-3.03-1.732-3.03-1.732h-7.358V7.006c0-1.514-1.082-2.596-2.596-2.596h-6.276C14.638 2.246 12.04.73 9.228.73 4.468.73.788 4.627.788 9.388c0 1.947.65 3.679 1.732 5.193v9.522c0 1.515 1.082 2.597 2.596 2.597h1.082v.216c0 2.597 2.164 4.761 4.761 4.761s4.761-2.164 4.761-4.76V26.7h10.82v.216c0 2.597 2.164 4.761 4.761 4.761s4.76-2.164 4.76-4.76V26.7h.434c3.678.216 3.246-2.38 3.246-2.38zm-1.081-7.575v.65h-8.44c-.433 0-.866-.433-.866-.866v-3.462c0-.433.433-.866.866-.866h5.626c.65.65 1.299 1.515 1.732 2.164 1.082 1.298 1.082 2.38 1.082 2.38zM9.229 2.03c4.11 0 7.573 3.246 7.573 7.574 0 4.328-3.462 7.358-7.574 7.358S1.87 13.498 1.87 9.387c0-4.112 3.246-7.358 7.358-7.358zm1.514 28.565c-1.948 0-3.463-1.515-3.463-3.462 0-1.948 1.515-3.463 3.463-3.463 1.947 0 3.462 1.515 3.462 3.463 0 1.947-1.514 3.462-3.462 3.462zm4.328-4.977c-.65-1.731-2.38-3.246-4.328-3.246-1.948 0-3.679 1.298-4.328 3.246H4.9c-.65 0-1.298-.65-1.298-1.299v-8.656c1.514 1.299 3.462 2.164 5.626 2.164 4.76 0 8.44-3.895 8.44-8.44 0-1.298-.433-2.596-.866-3.678h5.627c.649 0 1.298.65 1.298 1.298V24.32c0 .649-.65 1.298-1.299 1.298h-7.357zm16.014 4.977c-1.948 0-3.463-1.515-3.463-3.462 0-1.948 1.515-3.463 3.463-3.463 1.947 0 3.462 1.515 3.462 3.463 0 1.947-1.515 3.462-3.462 3.462zm5.41-4.76h-.866c-.65-1.948-2.38-3.247-4.328-3.247-2.164 0-3.895 1.299-4.328 3.246h-2.164c.433-.432.65-.865.65-1.514V8.954h6.708c1.947 0 2.813 1.298 2.813 1.298s-.217.433.216.866H30.22c-1.082 0-1.731.866-1.731 1.731v3.463c0 1.082.865 1.73 1.731 1.73h8.656v5.627c-.216 2.38-2.38 2.164-2.38 2.164z" fill="#C6F7FF"></path>
  </symbol>
  <symbol fill="none" xmlns="http://www.w3.org/2000/svg" viewBox="0 0 37 37" id="bag">
    <path d="M10.568 7.167c0 .486.972.972 2.43.972 1.457 0 2.428-.486 2.428-.972s-.971-.972-2.429-.972c-1.214 0-2.43.243-2.43.972z" fill="#C6F7FF"></path>
    <path d="M36.803 16.155a4.354 4.354 0 00-4.372-4.373H10.082s-5.83.243-8.502-4.372c.243-3.4 2.915-5.83 6.316-5.83h9.717c3.643 0 6.315 2.915 6.315 6.316V9.11h1.215v-.97c0-4.373-3.4-7.774-7.773-7.774H8.139C3.766.365.365 3.766.365 8.14v11.417c0 4.372 3.401 7.773 7.774 7.773h1.7v-1.214H7.896c-3.644 0-6.316-2.915-6.316-6.316V9.597c.729.97 3.158 3.4 8.26 3.4h22.59c1.7 0 2.915 1.215 2.915 2.915v1.943c0 1.7-1.215 2.915-2.915 2.915H16.884a4.354 4.354 0 00-4.373 4.373v6.559a4.354 4.354 0 004.373 4.372H32.43a4.354 4.354 0 004.372-4.372V16.155zm-1.457 16.033c0 1.7-1.215 2.915-2.915 2.915H16.64c-1.7 0-2.915-1.215-2.915-2.915v-7.045c0-1.7 1.214-2.915 2.915-2.915h4.615v4.13h1.215v-4.13h7.773v4.13h1.215v-4.13h.972c1.214 0 2.429-.486 3.158-1.215v11.175h-.243z" fill="#C6F7FF"></path>
  </symbol>
  <symbol fill="none" xmlns="http://www.w3.org/2000/svg" viewBox="0 0 41 41" id="leaf">
    <path d="M6.687 24.47c0 .487.243.973.243 1.458 0 1.944.242 5.102.242 5.102h1.215s0-5.102-.729-7.774c-.728-2.915-.971-8.259.729-12.146l-1.215-.485s-1.457 2.915-1.457 7.53c0 2.915.243 4.13.486 5.344-.972-.729-3.644-3.158-3.401-8.259.486-5.83 5.587-11.174 5.587-11.174s8.988 8.502.972 17.976l.971.728s3.644-4.13 3.644-8.745c0-4.615-1.943-8.502-5.587-11.66 0 0-6.316 6.073-6.802 13.36-.243 6.803 4.859 9.232 4.859 9.232l.243-.486z" fill="#C6F7FF"></path>
    <path d="M19.318 18.155c-8.988 2.672-8.502 11.417-8.259 13.36-3.158 3.158-4.615 6.074-4.615 6.074l.971.485c9.231-15.303 23.563-12.388 23.563-12.388V24.47c-8.745-.972-14.818 2.43-18.947 5.83-.243-3.158 1.214-10.688 10.445-11.417 10.689-.243 15.79 6.073 15.79 6.073-5.587 8.988-11.903 10.202-15.79 10.688-4.13.729-9.23-2.186-9.23-2.186l-.486.972s4.372 2.915 9.96 2.429c12.145-1.458 16.76-12.146 16.76-12.146-1.214-2.43-10.202-8.988-20.162-6.559z" fill="#C6F7FF"></path>
  </symbol>
</svg>