<svg width="0" height="0" class="hidden">
  <symbol fill="none" xmlns="http://www.w3.org/2000/svg" viewBox="0 0 91 91" id="composition">
    <rect width="91" height="91" rx="4" fill="#86C3D7"></rect>
    <path d="M66.69 19.164l-5.883-5.885A4.324 4.324 0 0057.73 12a4.348 4.348 0 00-3.087 1.279 4.379 4.379 0 00-1.279 3.182 4.376 4.376 0 00-3.18 1.279 4.378 4.378 0 00-1.279 3.181 4.334 4.334 0 00-3.18 1.28 4.378 4.378 0 00-1.28 3.181 4.376 4.376 0 00-3.18 1.279L26.713 41.218l-4.397 4.398a.991.991 0 00-.27.437c0 .02-.01.031-.01.052a.97.97 0 00.061.686c.021.052.052.094.073.146.135.197.333.353.582.426l3.566 1.019 1.018 3.567c.094.343.364.613.718.717l3.565 1.019 1.019 3.566c.072.25.228.448.436.583a.56.56 0 00.135.072 1.016 1.016 0 00.717.052.98.98 0 00.468-.28l4.397-4.399 6.31-6.311a1.036 1.036 0 001.466 0l7.515-7.518a1.036 1.036 0 000-1.466l-.094-.093a4.428 4.428 0 00.634-2.36 4.376 4.376 0 003.18-1.28 4.379 4.379 0 001.28-3.181 4.335 4.335 0 003.18-1.28 4.379 4.379 0 001.279-3.181 4.376 4.376 0 003.18-1.279A4.351 4.351 0 0068 22.242c-.031-1.154-.478-2.257-1.31-3.078zm-32.556 35.8l-.686-2.423a1.039 1.039 0 00-.717-.717l-3.565-1.009-1.019-3.566a1.038 1.038 0 00-.717-.718l-2.422-.686 2.422-2.423 9.116 9.12-2.412 2.422zM46.421 44.15l-2.443-11.302a1.05 1.05 0 00-1.237-.801 1.05 1.05 0 00-.8 1.237l2.463 11.407-6.382 6.384-9.116-9.119 13.087-13.09 9.854 9.856-5.426 5.428zm18.804-20.286a2.261 2.261 0 01-2.63.426 1.028 1.028 0 00-1.196.198c-.311.322-.395.8-.197 1.195a2.29 2.29 0 01-.426 2.631 2.275 2.275 0 01-2.63.427 1.028 1.028 0 00-1.196.197c-.311.312-.395.8-.197 1.196a2.29 2.29 0 01-.426 2.63 2.262 2.262 0 01-2.63.427 1.028 1.028 0 00-1.195.197 1.047 1.047 0 00-.198 1.196 2.27 2.27 0 01.125 1.726l-8.763-8.765a2.317 2.317 0 011.726.124c.395.198.883.125 1.195-.197.312-.322.395-.8.198-1.196a2.29 2.29 0 01.426-2.63 2.275 2.275 0 012.63-.427c.395.198.883.125 1.195-.197.312-.312.395-.8.197-1.196a2.29 2.29 0 01.427-2.63 2.261 2.261 0 012.63-.427c.395.198.883.125 1.195-.198.312-.312.395-.8.197-1.195a2.29 2.29 0 01.427-2.631 2.262 2.262 0 011.621-.665c.613 0 1.185.239 1.622.665l5.873 5.885c.436.437.665 1.009.665 1.622 0 .603-.24 1.186-.665 1.612zm-38.288 42c.878 0 1.667.182 2.368.547l-.336 1.583-.154.07a3.576 3.576 0 00-.925-.462 3.258 3.258 0 00-1.037-.169c-1.485 0-2.228.977-2.228 2.929 0 1.056.192 1.85.575 2.382.392.523.962.785 1.709.785a3.946 3.946 0 002.074-.603l.168.098-.154 1.612c-.71.327-1.457.49-2.242.49-1.345 0-2.373-.392-3.083-1.177-.7-.785-1.05-1.91-1.05-3.377 0-1.494.373-2.653 1.12-3.475.757-.822 1.822-1.233 3.195-1.233zm7.717-.014c1.27 0 2.246.388 2.928 1.163.692.766 1.037 1.86 1.037 3.279 0 1.55-.373 2.746-1.12 3.587-.748.84-1.804 1.261-3.167 1.261-1.261 0-2.238-.392-2.929-1.177-.682-.794-1.023-1.915-1.023-3.363 0-1.522.37-2.695 1.107-3.517.747-.822 1.803-1.233 3.167-1.233zm-.168 1.527c-.748 0-1.29.234-1.626.701-.336.467-.504 1.228-.504 2.284 0 1.205.163 2.064.49 2.578.337.514.888.77 1.654.77.747 0 1.289-.233 1.625-.7.336-.476.505-1.252.505-2.326 0-1.186-.169-2.031-.505-2.536-.327-.514-.873-.77-1.64-.77zm9.597-1.513c.878 0 1.667.182 2.368.547l-.337 1.583-.154.07a3.574 3.574 0 00-.925-.462A3.258 3.258 0 0044 67.433c-1.486 0-2.228.977-2.228 2.929 0 1.056.191 1.85.574 2.382.392.523.962.785 1.71.785a3.951 3.951 0 002.073-.603l.169.098-.155 1.612c-.71.327-1.457.49-2.242.49-1.345 0-2.372-.392-3.082-1.177-.7-.785-1.051-1.91-1.051-3.377 0-1.494.373-2.653 1.12-3.475.758-.822 1.822-1.233 3.196-1.233zm9.636.266l-.112 1.416-1.695-.085h-.56l-.07 4.68.083 2.859H49.46l.099-2.69-.07-4.849h-.561l-1.723.085-.127-.155.127-1.415h6.403l.112.154zM61.416 75h-1.933l-.224-1.177-.239-.84-1.765-.043-1.555.042-.239.743L55.223 75h-1.877l3.054-9.024h2.256L61.416 75zm-2.802-3.489l-1.065-3.755h-.126L56.19 71.51l1.205.028 1.22-.028zm8.988-1.191c.617.15 1.07.402 1.36.757.298.345.448.803.448 1.373 0 1.747-1.368 2.62-4.106 2.62-.803 0-1.625-.023-2.466-.07l.098-2.69-.098-6.334 3.21-.014c.924 0 1.643.196 2.157.589.514.383.77.939.77 1.667 0 .486-.12.91-.364 1.275-.233.365-.57.64-1.009.827zm-.574-1.85c0-.41-.122-.7-.364-.868-.243-.178-.668-.267-1.276-.267h-.686l-.042 2.453 1.317.041c.355-.093.617-.247.785-.462.177-.215.266-.514.266-.897zm-1.401 5.24c.588 0 1.041-.116 1.359-.35.327-.233.49-.57.49-1.008 0-.663-.43-1.075-1.289-1.233l-1.555.028-.014.994.042 1.514c.327.037.65.056.967.056z" fill="#fff"></path>
  </symbol>
</svg>