<?xml version="1.0" encoding="utf-8"?><svg xmlns="http://www.w3.org/2000/svg" xmlns:xlink="http://www.w3.org/1999/xlink"><symbol viewBox="0 0 24 24" id="contacts--facebook" xmlns="http://www.w3.org/2000/svg"><path d="M24 22.692c0 .72-.589 1.308-1.308 1.308h-6.147v-9.286h3.139l.458-3.597h-3.597V8.828c0-1.046.261-1.765 1.766-1.765h1.896v-3.27c-.327-.065-1.439-.13-2.812-.13-2.746 0-4.643 1.7-4.643 4.773v2.681H9.613v3.597h3.139V24H1.308C.588 24 0 23.411 0 22.692V1.308C0 .588.589 0 1.308 0h21.384C23.412 0 24 .589 24 1.308v21.384z"/></symbol><symbol viewBox="0 0 24 24" id="contacts--insta" xmlns="http://www.w3.org/2000/svg"><path d="M21.123 0H2.877C1.307 0 0 1.243 0 2.812v18.376C0 22.758 1.308 24 2.877 24h18.246C22.693 24 24 22.758 24 21.188V2.812C24 1.242 22.692 0 21.123 0zm-3.859 3.728c0-.393.327-.72.72-.72h2.288c.393 0 .72.327.72.72V5.95c0 .392-.327.72-.72.72H18.05a.726.726 0 01-.72-.72l-.065-2.223zM12.033 7.39c2.55 0 4.643 2.027 4.643 4.577s-2.093 4.578-4.643 4.578-4.643-2.027-4.643-4.578c0-2.485 2.092-4.577 4.643-4.577zm9.678 13.602c0 .392-.327.72-.72.72H3.009a.726.726 0 01-.72-.72V9.744h2.944c-.393.588-.524 1.635-.524 2.289 0 3.989 3.27 7.259 7.325 7.259 4.054 0 7.324-3.27 7.324-7.26 0-.653-.065-1.7-.589-2.288h3.009l-.066 11.248z"/></symbol><symbol class="achidden" viewBox="0 0 0 0" id="contacts--sprite"/><symbol viewBox="0 0 24 20.09" id="contacts--twitter" xmlns="http://www.w3.org/2000/svg"><path d="M23.346.42c-.98.588-2.027.98-3.139 1.242A4.838 4.838 0 0016.61.092c-2.746 0-4.904 2.29-4.904 5.036 0 .392.065.785.13 1.177C7.716 6.044 4.12 4.016 1.7.943a5.466 5.466 0 00-.654 2.55c0 1.766.85 3.27 2.224 4.185-.785 0-1.57-.261-2.224-.653v.13c0 2.42 1.7 4.513 3.924 4.97-.392.131-.85.197-1.308.197-.327 0-.654 0-.915-.066.654 2.027 2.42 3.466 4.577 3.531-1.7 1.374-3.793 2.158-6.147 2.158-.392 0-.785 0-1.177-.065a13.597 13.597 0 007.52 2.289c9.09 0 13.995-7.717 13.995-14.387v-.654c.98-.72 1.831-1.57 2.485-2.616-.85.393-1.831.654-2.812.785.98-.72 1.766-1.7 2.158-2.877z"/></symbol><symbol viewBox="0 0 24.19 13.67" id="contacts--vk" xmlns="http://www.w3.org/2000/svg"><path d="M23.87 12.526c0-.066-.066-.13-.066-.13-.393-.72-1.243-1.701-2.42-2.748-.523-.523-.85-.85-.98-1.046-.262-.327-.328-.654-.197-.98.13-.262.458-.785 1.112-1.636.327-.457.588-.784.785-1.046C23.541 3.044 24.195 1.801 24 1.278l-.065-.13c-.066-.197-.197-.262-.393-.328-.196-.065-.458-.065-.785 0H18.9c-.13 0-.13.066-.13.066h-.066l-.065.065c-.066 0-.066.065-.131.13-.066.066-.066.132-.131.197-.392.98-.85 1.962-1.308 2.812-.327.523-.588.98-.85 1.373s-.458.654-.654.85l-.458.458c-.13.13-.261.13-.327.13-.065 0-.13-.064-.196-.064-.13-.066-.196-.197-.261-.327-.066-.131-.131-.262-.131-.458s-.066-.393-.066-.523V1.8c0-.261 0-.458-.065-.588 0-.131-.065-.262-.13-.393-.066-.13-.132-.261-.262-.327l-.393-.196c-.458-.13-.98-.13-1.7-.13-1.57 0-2.55.065-3.008.326C8.37.56 8.24.69 8.109.886c-.13.196-.196.261-.065.327.523.065.85.261 1.046.523l.065.13c.066.131.131.327.197.589.065.262.065.589.13.916a6.279 6.279 0 010 1.569c-.065.458-.065.785-.13.981-.066.262-.066.458-.197.589l-.13.261c0 .066-.066.066-.066.066-.13.065-.196.065-.327.065-.13 0-.261-.066-.392-.196-.196-.131-.327-.262-.523-.458a3.169 3.169 0 01-.589-.85c-.196-.393-.458-.785-.72-1.308l-.195-.392c-.131-.262-.327-.589-.524-1.047-.196-.458-.392-.85-.588-1.308-.066-.13-.196-.261-.327-.392h-.066c-.065-.065-.13-.065-.196-.13-.065 0-.196-.066-.261-.066H.85c-.393 0-.655.13-.786.261v.066C0 1.147 0 1.212 0 1.278c0 .065 0 .196.065.327a54.395 54.395 0 001.635 3.4c.589 1.112 1.112 1.962 1.504 2.616.458.654.85 1.308 1.308 1.897.458.588.72.98.916 1.111.13.197.261.262.327.393l.327.327c.196.196.523.457.85.72.392.26.785.522 1.308.85a6.105 6.105 0 001.635.653c.654.196 1.242.262 1.83.196h1.44a1 1 0 00.653-.261l.066-.066c.065-.065.065-.13.065-.261s.066-.196.066-.327c0-.327 0-.654.065-.981.065-.262.13-.523.196-.654.066-.13.196-.262.262-.392.13-.131.196-.131.196-.197.065 0 .065-.065.13-.065.197-.065.459 0 .72.196.262.196.523.458.785.72.261.261.523.588.85.98.327.327.654.654.85.785l.262.131c.196.13.392.196.654.262.261.065.523.13.719.065l3.204-.065c.327 0 .589-.066.72-.131.196-.131.261-.196.327-.327.065-.131.065-.262 0-.458 0 0 0-.13-.066-.196z"/></symbol><symbol viewBox="0 0 64 54.24" id="feat--hand" xmlns="http://www.w3.org/2000/svg"><path d="M49.937 8.45c-6.027 0-13.776 4.305-13.489 13.201 0 0-11.766-3.73-15.21 8.61 0 0-2.01-4.305-4.592-6.313-2.87-2.01-6.314-7.175-6.601-9.758.287-1.435.574-1.435 1.148-1.722.287 0 .287 2.296 2.87 2.583 2.296-.287 2.87-.861 3.73-2.01l2.584-2.87s2.583-3.443.287-5.165c-2.01-2.01-5.74-5.74-10.332-4.88C7.749.702 5.74 2.71 5.74 2.71L2.296 5.867S0 8.163 0 12.755c0 4.018.861 10.618.861 10.618l1.148 6.888c.287 1.722 2.583 11.767 8.036 17.22 3.444 4.018 5.453 5.74 7.175 6.027 2.87 0 4.305-1.722 6.6-1.722 2.297 0 4.593 1.722 9.471 1.722 4.88 0 15.785-2.87 20.377-16.933C57.973 34.853 64 31.696 64 22.225c0-9.47-8.323-13.775-14.063-13.775zm2.01 26.403C48.788 47.481 38.743 50.925 33.864 51.5c-4.592 0-7.174-1.722-10.618-1.722-2.01 0-4.88 1.722-5.74 1.722-.861 0-3.157-2.009-6.027-5.166-2.87-3.157-4.018-6.027-5.166-8.323-1.148-2.296-3.157-11.48-3.157-11.48s-.861-9.183-.861-13.201c0-3.731 1.722-6.027 1.722-6.027L8.61 3.284c2.583-2.01 5.74-.574 5.74-.574s3.157 2.009 4.305 3.157c1.435 1.148 0 2.296 0 2.296s-3.157 4.018-4.305 4.305c-1.435.287-1.722-3.157-1.722-3.157-1.435.574-3.731 1.148-4.592 3.73-.861 3.158 3.73 9.758 7.175 12.915 3.157 3.157 5.166 8.323 5.166 8.323l2.583-.86s-.287-6.028 4.879-9.184c5.74-3.157 10.905 1.148 10.905 1.148-1.722-14.35 10.906-14.637 11.767-14.637.861 0 10.906.86 11.767 10.905-.574 11.48-10.332 13.202-10.332 13.202z"/></symbol><symbol viewBox="0 0 64.86 68.31" id="feat--man" xmlns="http://www.w3.org/2000/svg"><path d="M60.03 19.665c.69-.69 1.38-1.38 1.725-2.07 2.415-3.105 2.07-4.485-.345-6.555-2.415-2.07-6.21 1.035-6.21 1.035l-.69.69c-3.795-3.45-8.625-6.21-14.145-7.59C38.295 2.07 35.19 0 31.74 0c-3.795 0-6.9 2.415-8.97 5.52-4.485 1.38-8.625 3.795-12.075 6.9-.69-.345-2.07-1.725-3.795-2.07-2.415-.345-4.83 1.38-5.175 3.795 0 1.38 1.38 3.45 3.105 5.52C1.725 24.495 0 30.015 0 36.225 0 53.82 14.49 68.31 32.43 68.31c6.21 0 12.42-1.725 17.25-4.83l-1.035-2.415c-4.485-11.385-3.45-18.63-3.105-22.08 1.035-3.795 4.83-8.97 6.9-11.73 1.38-1.725 3.45-3.45 5.52-5.52 2.76 4.14 4.14 8.97 4.14 14.49 0 7.935-3.45 15.18-8.625 20.7l2.07 1.725c5.865-5.865 9.315-13.8 9.315-22.425 0-6.21-1.725-11.73-4.83-16.56zM31.74 2.76c4.485 0 7.935 4.14 7.935 9.315s-3.45 9.315-7.935 9.315c-4.485 0-7.935-3.795-7.935-9.315s3.45-9.315 7.935-9.315zm0 21.39c5.865 0 10.695-5.52 10.695-12.075 0-1.38-.345-2.415-.69-3.795 4.14 1.38 7.59 3.45 10.695 6.21-2.76 2.415-6.9 5.52-8.97 6.9-3.105 2.415-8.28 4.83-12.42 4.83-4.14 0-6.21-1.725-9.315-3.105-2.76-1.38-7.245-6.555-9.315-8.625 2.76-2.415 5.865-4.14 8.97-5.52 0 1.035-.345 2.07-.345 3.105 0 6.9 4.83 12.075 10.695 12.075zM2.76 36.225c0-5.175 1.38-10.005 3.795-14.49L7.59 22.77s8.625 10.005 10.35 12.42c1.725 2.415-.345 4.14-1.725 10.35-1.035 4.83-1.035 11.385-1.035 14.49C7.59 54.51 2.76 45.885 2.76 36.225zm53.475-16.56c-1.38 1.38-6.21 5.52-10.35 12.075s-3.45 11.73-3.105 15.525c.345 3.795 1.38 7.245 1.725 8.625.345 1.035 1.725 4.83 2.07 5.865-4.14 2.07-8.97 3.45-13.8 3.45-5.52 0-10.35-1.38-14.835-3.795 0-11.73.69-13.455 1.035-15.18 0-1.725 1.035-5.175 2.07-7.935.69-2.415-.345-4.485-1.38-5.52C18.63 31.74 8.625 19.665 6.9 17.25c-2.07-2.415-2.415-3.45-.69-4.14 1.725-1.035 6.21 4.485 8.28 6.9 1.725 2.415 9.66 8.97 16.905 8.625 7.245-.345 12.42-4.14 14.49-5.52 1.725-1.38 10.695-8.625 12.075-9.66 1.38-1.035 3.105 0 2.76 1.035-.345 1.035-3.105 3.795-4.485 5.175z"/></symbol><symbol viewBox="0 0 64 64" id="feat--smile" xmlns="http://www.w3.org/2000/svg"><path d="M32 0C14.431 0 0 14.431 0 32c0 17.569 14.431 32 32 32 17.569 0 32-14.431 32-32C64 14.431 49.569 0 32 0zm0 61.49C15.686 61.49 2.51 48.314 2.51 32S15.686 2.51 32 2.51 61.49 15.686 61.49 32 48.314 61.49 32 61.49z"/><path d="M32 48.627c-10.98 0-17.569-9.725-17.569-9.725l-2.196 1.569C21.02 51.765 32 51.45 32 51.45s10.98.627 19.765-10.98l-2.196-1.569S42.98 48.627 32 48.627zM21.333 35.451c7.53-3.451 8.785-7.843 8.785-10.04 0-2.509-1.569-5.333-4.392-5.333-3.138 0-4.393 1.57-4.393 1.57s-1.255-1.57-4.392-1.57c-2.823 0-4.392 3.138-4.392 5.334 0 2.196 1.255 6.588 8.784 10.039zm0-10.667c1.569-2.51 5.961-2.823 6.275.314 0 4.392-6.275 7.53-6.275 7.53s-6.274-3.138-6.274-7.53c.314-3.137 4.706-2.823 6.274-.314zm21.334 10.667c7.529-3.451 8.784-7.843 8.784-9.726 0-2.51-1.569-5.333-4.392-5.333-3.137 0-4.392 1.569-4.392 1.569s-1.255-1.569-4.392-1.569c-2.824 0-4.393 3.137-4.393 5.334 0 1.882 1.255 6.274 8.785 9.725zm0-10.667c1.568-2.51 5.96-2.823 6.274.314 0 4.392-6.274 7.53-6.274 7.53s-6.275-3.138-6.275-7.53c.314-3.137 4.706-2.823 6.275-.314z"/></symbol><symbol viewBox="0 0 0 0" id="feat--sprite"/><symbol viewBox="0 0 10.27 8.03" id="form--checkbox" xmlns="http://www.w3.org/2000/svg"><path d="M9.45.552A1.636 1.636 0 007.064.46L3.67 3.862l-.734-.736c-.642-.643-1.743-.643-2.386 0H.46c-.642.644-.642 1.747 0 2.391L2.477 7.54c.367.368.826.46 1.193.46.458 0 .825-.184 1.192-.46L9.45 2.942c.642-.643.642-1.747 0-2.39z"/></symbol><symbol viewBox="0 0 0 0" id="header--phone" xmlns="http://www.w3.org/2000/svg"/><symbol viewBox="0 0 52.6 38" id="logo" xmlns="http://www.w3.org/2000/svg"><g clip-path="url(#alclip0)"><path d="M0 8.565c0-2.461.8-4.43 2.4-6.104C4.1.886 6.1 0 8.6 0c2.6 0 4.6.69 6.2 2.166l-1.2 1.772c-.6-.59-1.4-.985-2.3-1.28-.9-.295-1.7-.492-2.6-.492-1.9 0-3.4.59-4.6 1.772C3 5.218 2.5 6.694 2.5 8.565c0 1.87.6 3.445 1.7 4.725 1.2 1.28 2.7 1.87 4.6 1.87.9 0 1.9-.196 2.8-.59.9-.394 1.7-.886 2.4-1.575l1.3 1.673c-1.8 1.772-4 2.658-6.6 2.658-2.6 0-4.7-.787-6.3-2.46C.8 13.092 0 11.025 0 8.564zm18.3 8.466V.295h2.3V7.58h8.8V.295h2.4v16.638h-2.4V9.648h-8.8v7.285h-2.3v.098zm16.9-8.466c0-2.363.8-4.43 2.5-6.104C39.3.788 41.4 0 43.9 0s4.6.788 6.2 2.461c1.7 1.674 2.5 3.643 2.5 6.104 0 2.46-.8 4.528-2.5 6.202-1.7 1.673-3.7 2.56-6.2 2.56s-4.6-.887-6.2-2.56c-1.7-1.674-2.5-3.741-2.5-6.202zm2.5 0c0 1.87.6 3.445 1.8 4.725 1.2 1.28 2.7 1.87 4.5 1.87 1.8 0 3.3-.59 4.5-1.87 1.2-1.28 1.8-2.855 1.8-4.725 0-1.772-.6-3.347-1.8-4.529-1.2-1.181-2.7-1.87-4.5-1.87-1.8 0-3.3.59-4.5 1.87-1.3 1.182-1.8 2.658-1.8 4.529zM0 29.238c0-2.46.8-4.43 2.4-6.103 1.7-1.575 3.7-2.461 6.2-2.461 2.6 0 4.6.689 6.2 2.165l-1.2 1.772c-.6-.59-1.4-.984-2.3-1.28-.9-.295-1.8-.492-2.6-.492-1.9 0-3.4.591-4.6 1.772-1.1 1.182-1.7 2.757-1.7 4.529 0 1.87.6 3.446 1.7 4.725 1.2 1.28 2.7 1.87 4.6 1.87.9 0 1.9-.196 2.8-.59.9-.394 1.7-.886 2.4-1.575l1.3 1.673c-1.8 1.773-4 2.658-6.6 2.658-2.6 0-4.7-.787-6.3-2.46C.8 33.766 0 31.698 0 29.237zm16.8 0c0-2.46.8-4.43 2.4-6.103 1.6-1.575 3.7-2.461 6.2-2.461 2.6 0 4.6.689 6.2 2.165l-1.2 1.772c-.6-.59-1.4-.984-2.3-1.28-.9-.295-1.8-.492-2.6-.492-1.9 0-3.4.591-4.6 1.772-1.1 1.182-1.7 2.757-1.7 4.529 0 1.87.6 3.446 1.7 4.725 1.2 1.28 2.7 1.87 4.6 1.87.9 0 1.9-.196 2.8-.59.9-.394 1.7-.886 2.4-1.575l1.3 1.673c-1.8 1.773-4 2.658-6.6 2.658-2.6 0-4.7-.787-6.3-2.46-1.5-1.674-2.3-3.742-2.3-6.203zm16.8 0c0-2.362.8-4.43 2.5-6.103 1.6-1.674 3.7-2.461 6.2-2.461s4.6.787 6.2 2.46c1.6 1.674 2.5 3.643 2.5 6.104 0 2.462-.8 4.529-2.5 6.202-1.7 1.674-3.7 2.56-6.2 2.56s-4.6-.886-6.2-2.56c-1.7-1.673-2.5-3.74-2.5-6.202zm2.4 0c0 1.87.6 3.446 1.8 4.726 1.2 1.28 2.7 1.87 4.5 1.87 1.8 0 3.3-.59 4.5-1.87 1.2-1.28 1.8-2.855 1.8-4.726 0-1.772-.6-3.347-1.8-4.528-1.2-1.181-2.7-1.87-4.5-1.87-1.8 0-3.3.59-4.5 1.87-1.2 1.181-1.8 2.658-1.8 4.528z"/></g><defs><clipPath id="alclip0"><path d="M0 0h52.6v38H0z"/></clipPath></defs></symbol><symbol viewBox="0 0 58 73" id="map--marker" xmlns="http://www.w3.org/2000/svg"><path d="M29 0C18.913 0 0 7.684 0 29.456S29 73 29 73s29-21.772 29-43.544S39.087 0 29 0z"/><path d="M11.096 22.412c0-1.665.504-3.201 1.639-4.354s2.521-1.665 4.16-1.665c1.766 0 3.153.512 4.288 1.537l-.757 1.28c-.378-.384-.883-.64-1.513-.896-.63-.256-1.26-.384-1.765-.384-1.261 0-2.396.384-3.152 1.28-.757.897-1.135 1.922-1.135 3.202 0 1.281.378 2.434 1.135 3.33.756.897 1.89 1.409 3.152 1.409.63 0 1.26-.128 1.891-.384.63-.256 1.135-.64 1.64-1.153l.882 1.153c-1.261 1.28-2.774 1.92-4.413 1.92-1.64 0-3.152-.64-4.287-1.792-1.261-1.28-1.765-2.818-1.765-4.483zm12.356 5.891V16.521h1.64v5.123h6.051V16.52h1.64v11.782h-1.64V23.18h-6.052v5.122h-1.639zm11.6-6.019c0-1.665.504-3.073 1.64-4.226 1.134-1.153 2.521-1.665 4.286-1.665 1.765 0 3.152.512 4.287 1.665 1.135 1.153 1.64 2.561 1.64 4.226 0 1.793-.505 3.202-1.64 4.355-1.135 1.152-2.522 1.793-4.287 1.793-1.765 0-3.152-.64-4.287-1.793-1.009-1.153-1.639-2.562-1.639-4.355zm1.64 0c0 1.281.377 2.434 1.26 3.33.883.897 1.891 1.28 3.026 1.28 1.261 0 2.27-.383 3.026-1.28.757-.896 1.261-2.049 1.261-3.33 0-1.28-.378-2.305-1.26-3.201-.757-.897-1.766-1.281-3.027-1.281-1.26 0-2.27.384-3.026 1.28-.756.897-1.26 1.922-1.26 3.202zM11.6 37.78c0-1.664.504-3.201 1.639-4.354s2.522-1.665 4.16-1.665c1.766 0 3.153.512 4.288 1.537l-.757 1.28c-.378-.383-.882-.64-1.513-.896-.63-.256-1.26-.384-1.765-.384-1.26 0-2.396.384-3.152 1.28-.757.897-1.135 1.922-1.135 3.203 0 1.28.378 2.433 1.135 3.33.756.896 1.891 1.408 3.152 1.408.63 0 1.26-.128 1.891-.384.63-.256 1.135-.64 1.64-1.153l.882 1.153c-1.26 1.28-2.774 1.921-4.413 1.921-1.64 0-3.152-.64-4.287-1.793-1.26-1.28-1.765-2.818-1.765-4.482zm11.474 0c0-1.664.504-3.201 1.639-4.354s2.522-1.665 4.16-1.665c1.766 0 3.153.512 4.288 1.537l-.883 1.28c-.378-.383-.882-.64-1.513-.896-.63-.256-1.26-.384-1.765-.384-1.261 0-2.396.384-3.152 1.28-.757.897-1.135 1.922-1.135 3.203 0 1.28.378 2.433 1.135 3.33.756.896 1.891 1.408 3.152 1.408.63 0 1.26-.128 1.891-.384.63-.256 1.135-.64 1.64-1.153l.882 1.153c-1.26 1.28-2.774 1.921-4.413 1.921-1.765 0-3.152-.64-4.287-1.793-1.135-1.28-1.64-2.818-1.64-4.482zm11.474-.127c0-1.666.504-3.074 1.639-4.227 1.135-1.153 2.522-1.665 4.287-1.665 1.765 0 3.152.512 4.287 1.665 1.135 1.153 1.639 2.561 1.639 4.227 0 1.792-.504 3.201-1.64 4.354-1.134 1.153-2.52 1.793-4.286 1.793-1.765 0-3.152-.64-4.287-1.793-1.135-1.153-1.64-2.562-1.64-4.354zm1.639 0c0 1.28.378 2.433 1.26 3.33.883.896 1.892 1.28 3.027 1.28 1.26 0 2.27-.384 3.026-1.28.757-.897 1.26-2.05 1.26-3.33 0-1.281-.377-2.306-1.26-3.202-.757-.897-1.765-1.281-3.026-1.281s-2.27.384-3.026 1.28c-.883.897-1.261 1.922-1.261 3.203z"/></symbol><symbol viewBox="0 0 24.03 24.58" id="offer--almond" xmlns="http://www.w3.org/2000/svg"><path d="M11.268 19.194a.463.463 0 00-.581.314 5.011 5.011 0 01-4.772 3.553 4.987 4.987 0 01-4.978-4.978c0-3.68 1.294-7.265 3.647-10.096l.792-.952a.695.695 0 01.535-.253c.206 0 .403.094.534.253l.792.952a15.814 15.814 0 013.44 7.537.468.468 0 00.924-.155 16.78 16.78 0 00-3.642-7.982l-.788-.956a1.625 1.625 0 00-1.256-.59c-.487 0-.947.215-1.256.59l-.792.951A16.775 16.775 0 000 18.083a5.921 5.921 0 005.915 5.915 5.869 5.869 0 003.567-1.195 5.974 5.974 0 002.105-3.023.473.473 0 00-.319-.586z"/><path d="M5.69 11.854a.467.467 0 00-.192.633 11.934 11.934 0 011.373 4.687.47.47 0 00.47.431h.037a.467.467 0 00.43-.501 12.695 12.695 0 00-1.48-5.058.47.47 0 00-.638-.192zm.225 8.16a.47.47 0 00.469-.468.47.47 0 00-.469-.469 1 1 0 01-.998-.998c0-.586.042-1.177.131-1.753a.468.468 0 00-.394-.535.468.468 0 00-.534.394c-.094.623-.14 1.26-.14 1.894 0 1.068.867 1.935 1.935 1.935zm0 1.992a3.928 3.928 0 003.923-3.923.47.47 0 00-.468-.468.47.47 0 00-.469.468 2.99 2.99 0 01-2.986 2.986.47.47 0 00-.468.469c0 .258.21.468.468.468zm3.056-6.801a.47.47 0 00.46-.581 14.831 14.831 0 00-1.514-3.83.469.469 0 00-.816.46 13.926 13.926 0 011.42 3.586.46.46 0 00.45.365zM4.11 11.404a.47.47 0 00-.627.216 14.856 14.856 0 00-1.49 6.458c0 .258.21.47.468.47a.47.47 0 00.469-.47c0-2.08.482-4.171 1.396-6.046a.474.474 0 00-.215-.628zm19.884 1.856l-.113-1.233A16.777 16.777 0 0019.053 1.73a5.918 5.918 0 00-8.362 0 5.918 5.918 0 000 8.361 16.784 16.784 0 0010.298 4.833l1.233.113c.052.004.103.004.15.004.431 0 .844-.168 1.153-.478.338-.342.51-.82.469-1.303zm-1.14.642a.703.703 0 01-.557.202l-1.233-.113a15.822 15.822 0 01-9.716-4.56 4.985 4.985 0 010-7.04 4.938 4.938 0 013.52-1.458 4.94 4.94 0 013.52 1.457 15.833 15.833 0 014.56 9.717l.113 1.233a.71.71 0 01-.206.562z"/><path d="M14.863 4.917c.267 0 .516.103.703.29.413.413.802.863 1.149 1.332a.468.468 0 10.754-.558 12.603 12.603 0 00-1.237-1.44 1.918 1.918 0 00-1.369-.566c-.515 0-1.003.201-1.368.567a.467.467 0 10.66.66c.193-.182.446-.285.708-.285zm4.251 4.659a12.023 12.023 0 01-4.288-2.344.468.468 0 10-.61.713 12.722 12.722 0 004.627 2.53.471.471 0 00.586-.314.476.476 0 00-.315-.585zm-1.476-6.44a.467.467 0 10-.661.66 13.933 13.933 0 013.29 5.264.469.469 0 00.6.286.47.47 0 00.291-.595 14.884 14.884 0 00-3.52-5.615zm1.219 8.437a13.716 13.716 0 01-3.54-1.533.465.465 0 00-.641.155.465.465 0 00.154.642 14.69 14.69 0 003.778 1.636.465.465 0 00.576-.323.47.47 0 00-.327-.577zm-6.103-8.437a.467.467 0 00-.661 0 3.932 3.932 0 000 5.55.46.46 0 00.333.135.467.467 0 00.333-.797 2.993 2.993 0 010-4.223.477.477 0 00-.005-.665zm-1.402 13.939a.464.464 0 00-.469.469.464.464 0 00.469.469.464.464 0 00.469-.469.484.484 0 00-.136-.333.472.472 0 00-.333-.136z"/></symbol><symbol viewBox="0 0 24 24.04" id="offer--apitherapy" xmlns="http://www.w3.org/2000/svg"><path d="M.188 21.55c3.48 2.177 3.25 2.064 3.414 2.064.164 0-.042.094 3.204-1.928 3.25 2.031 3.044 1.928 3.203 1.928.16 0 0 .07 2.617-1.566a.402.402 0 00-.427-.68l-2.195 1.374-2.8-1.75v-2.758l1.464-.914a.402.402 0 00-.427-.68l-1.435.9-2.8-1.75v-2.757l2.8-1.75c1.561.976 1.458.93 1.57.948a.402.402 0 00.446-.244.4.4 0 00-.154-.483l-1.464-.915V7.832l2.8-1.75 2.8 1.75v.576a.398.398 0 10.798 0v-.576l2.8-1.75 2.8 1.75v2.978a.398.398 0 10.797 0V7.606a.395.395 0 00-.187-.337l-3.016-1.886V2.4a.395.395 0 00-.188-.337L13.418.06a.402.402 0 00-.421 0l-2.988 1.867L7.017.06a.402.402 0 00-.423 0L3.391 2.063a.401.401 0 00-.188.337v2.98L.188 7.264A.401.401 0 000 7.602v3.203c0 .136.07.268.188.338l3.015 1.885v2.758L.188 17.672a.401.401 0 00-.188.337v3.204c0 .136.07.262.188.337zM13.208.872l2.8 1.75V5.38l-2.8 1.749-2.8-1.75V2.622l2.8-1.75zm-6.402 0l2.8 1.75V5.38l-2.8 1.749-2.8-1.75V2.622l2.8-1.75zM.802 7.827l2.8-1.75 2.8 1.75v2.758l-2.8 1.75-2.8-1.75V7.827zm0 10.403l2.8-1.75 2.8 1.75v2.758l-2.8 1.75-2.8-1.75V18.23z"/><path d="M18.41 12.01v-.403a2.42 2.42 0 00-.84-1.824l.398-.802a.4.4 0 00-.717-.357l-.37.746a2.384 2.384 0 00-1.746 0l-.37-.746a.397.397 0 00-.333-.225.4.4 0 00-.385.582l.399.802a2.395 2.395 0 00-.844 1.824v.404c-.366-.005-.76-.005-1.201-.005-2.125 0-4.404.966-4.404 2.401 0 1.726 3.25 2.631 4.868 2.36-.037.318-.065.755-.065 1.045 0 2.8 1.2 5.038 2.8 5.361v.446a.398.398 0 10.797 0v-.45c1.6-.324 2.8-2.561 2.8-5.361 0-.286-.028-.727-.066-1.042 1.637.273 4.869-.642 4.869-2.359 0-1.435-2.275-2.401-4.404-2.401-.404 0-.811 0-1.187.005zm-4.002-.403a1.598 1.598 0 113.2 0v.422c-.54-.01-1.084.07-1.6.23a4.765 4.765 0 00-1.604-.23v-.422h.005zm1.604 2.552c.188.375.418.727.69 1.046h-1.384a5.63 5.63 0 00.694-1.046zm-7.208.248c0-.722 1.66-1.6 3.602-1.6.802 0 2.692-.013 3.19.146-.137.962-1.535 3.058-3.19 3.058-1.937-.004-3.602-.881-3.602-1.604zm5.689 1.6h3.025c.244.192.507.356.783.492l.043.31h-2.735a.398.398 0 100 .797h2.79c.02.267.015.535-.013.802H13.63a4.573 4.573 0 01-.014-.802h.39a.398.398 0 100-.797h-.334l.042-.32c.282-.13.54-.29.779-.482zm-.286 4.802h1.8a.398.398 0 100-.797h-2.096a7.631 7.631 0 01-.183-.802h4.564c-.047.272-.108.54-.183.802h-.497a.398.398 0 100 .797h.202c-.976 2.134-2.632 2.134-3.607 0zm9.005-6.402c0 .995-2.974 1.998-4.4 1.445a4.403 4.403 0 01-2.391-2.899c.576-.173 2.307-.145 3.189-.15 1.942.005 3.602.882 3.602 1.604z"/></symbol><symbol viewBox="0 0 24.2 19.75" id="offer--beans" xmlns="http://www.w3.org/2000/svg"><path d="M11.367 3.056a.477.477 0 00-.67-.075 1.374 1.374 0 01-1.725 0 .477.477 0 10-.595.746c.412.332.932.51 1.462.51.53 0 1.05-.182 1.463-.51a.484.484 0 00.065-.67z"/><path d="M23.653 9.802a5.68 5.68 0 00-1.926-2.616 5.381 5.381 0 00-2.096-.947 5.761 5.761 0 00-1.284-4.252C17.287.707 15.764 0 14.057 0h-.276c-1.195 0-2.353.422-3.351 1.223a.965.965 0 01-.6.211.965.965 0 01-.6-.21C8.236.421 7.078 0 5.883 0h-.277C4.373 0 3.22.375 2.273 1.078A5.592 5.592 0 00.347 3.694a5.582 5.582 0 00-.192 3.225c.272 1.144.914 2.16 1.856 2.948.717.6 1.505 1.116 2.339 1.533a5.584 5.584 0 00.14 1.627c.272 1.143.915 2.16 1.857 2.948a12.225 12.225 0 0015.647 0c.942-.787 1.584-1.805 1.856-2.948a5.583 5.583 0 00-.197-3.225zm-19.153.6a11.218 11.218 0 01-1.88-1.27C.792 7.607.712 5.488 1.242 4.016c.535-1.481 1.964-3.06 4.36-3.06h.276c.975 0 1.927.35 2.752 1.012.337.272.764.422 1.195.422.431 0 .858-.15 1.195-.422.825-.666 1.777-1.013 2.752-1.013h.276c1.416 0 2.677.582 3.554 1.64a4.796 4.796 0 011.073 3.516 5.827 5.827 0 00-.29-.009h-.277c-1.195 0-2.353.422-3.352 1.224a.965.965 0 01-.6.21.965.965 0 01-.6-.21c-.998-.802-2.156-1.224-3.351-1.224h-.277A5.554 5.554 0 006.595 7.18 5.592 5.592 0 004.67 9.797a9.69 9.69 0 00-.169.605zm16.88 4.837a11.276 11.276 0 01-7.21 2.611c-2.63 0-5.198-.928-7.214-2.61-1.828-1.524-1.908-3.643-1.378-5.115.534-1.481 1.964-3.06 4.36-3.06h.276c.975 0 1.927.35 2.752 1.012a1.92 1.92 0 001.195.421c.431 0 .858-.15 1.195-.421.825-.666 1.777-1.013 2.752-1.013h.276c2.396 0 3.825 1.584 4.36 3.061.544 1.472.464 3.59-1.364 5.114z"/><path d="M15.623 9.098a.477.477 0 00-.67-.075 1.373 1.373 0 01-1.725 0 .477.477 0 10-.595.746c.412.333.933.51 1.462.51.53 0 1.05-.182 1.463-.51a.476.476 0 00.065-.67zm3.694 6.347a.476.476 0 00-.642-.206 9.792 9.792 0 01-4.505 1.083.48.48 0 00-.478.478.48.48 0 00.478.478c1.74 0 3.403-.398 4.94-1.19a.479.479 0 00.207-.643zm1.852-1.35a.481.481 0 00-.675-.06 17.1 17.1 0 01-.338.271.478.478 0 10.582.76c.126-.094.248-.197.37-.296a.482.482 0 00.06-.675z"/></symbol><symbol class="aqhidden" viewBox="0 0 0 0" id="offer--composition"/><symbol viewBox="0 0 24.42 23.81" id="offer--grape" xmlns="http://www.w3.org/2000/svg"><path d="M20.443 16.714c2.16-1.489 1.653-5.2-.935-5.913-.183-.052-.91-.024-1-.108-.146-.141-.235-.813-.348-1.02a3.256 3.256 0 00-1.446-1.366c-1.268-.61-2.8-.348-3.743.709-.912-1.23-2.499-1.606-3.87-.944A3.412 3.412 0 007.626 9.42c-.174.3-.3.625-.371.967-.08.41.023.785-.01 1.184-.023.277.043.22-.258.334a3.338 3.338 0 00-.493.239 3.205 3.205 0 00-.892.813 3.487 3.487 0 00-.681 2.179 3.285 3.285 0 00.47 1.597c.046.075.154.188.178.263.07.216.07.042-.033.249-.197.385-.56.662-.733 1.084a3.416 3.416 0 00.005 2.621c.08.193.211.357.296.545.07.155.127.141.089.272-.019.062-.282.254-.32.296A3.43 3.43 0 004 24.374c.014 1.818 1.508 3.34 3.349 3.245a3.256 3.256 0 002.193-1.014c.085-.09.315-.526.413-.559.08-.023.489.188.573.212.432.112.888.126 1.33.047a3.266 3.266 0 002.061-1.292c.137-.183.212-.413.343-.592.033-.042.057-.22.099-.244.019-.01.305.084.366.094.48.094.982.07 1.456-.061a3.32 3.32 0 001.343-.756c.104-.099.418-.606.531-.649.127-.042.554.146.705.165.995.108 2.005-.287 2.69-1.01 1.48-1.578.968-4.32-1.009-5.246.127-.09.254-.174.38-.263-.126.09-.253.174-.38.263zm-2.64-3.363a2.32 2.32 0 00.315-.456c.028-.046.052-.093.075-.145a3.26 3.26 0 00.263-.714c.08-.343.01-.39.348-.423.324-.028.714.132.982.292.54.324.892.887 1.033 1.493a2.62 2.62 0 01-.207 1.78c-.15.291-.366.545-.63.737-.088.066-.873.442-.873.357v-.047a2.47 2.47 0 00-.01-.333c0-.019-.004-.033-.004-.052v-.01a3.31 3.31 0 00-1.38-2.39c.032-.023.06-.056.088-.089.015-.014-.028.033 0 0 .118-.136-.028.033 0 0zm-.065 1.395a2.576 2.576 0 01.3.554c.01.024.014.042.024.066.005.01.005.019.01.028l.013.042c.052.15.075.31.099.465 0 .024.005.043.005.066 0 .01 0 .024.004.033 0 .023.005.042.005.066v.014c.01.202.005.441-.061.634-.005.019-.005.037-.01.052-.333.807-.85 1.526-1.756 1.719-.564.122-1.245.018-1.714-.334-.038-.023-.075-.052-.108-.075-.963-.733-1.142-2.053-.569-3.086.592-1.07 1.672-1.385 2.79-1.01.024.01.047.024.07.033.024.01.048.024.071.033.005 0 .01.005.014.005.066.033.132.07.193.113.056.037.113.075.169.117.052.038.099.08.146.127.009.01.018.014.023.023.066.052.258.287.282.315.005.01-.028-.038 0 0zm-4.922.507a3.821 3.821 0 00-.07.315c-.668.019-1.255-.277-1.715-.742a2.404 2.404 0 01-.573-1.118c-.437-1.146.625-2.536 1.69-2.804a3.36 3.36 0 001.382 3.048 3.36 3.36 0 00-.714 1.306l.056-.202-.056.197c-.029.104.136-.483 0 0zm.68 3.09c-.53.376-1.01.959-1.192 1.593a2.212 2.212 0 01-.226-.066 2.256 2.256 0 00-.662-.09c-.09 0-.178 0-.268.005a.96.96 0 01-.206.02.924.924 0 00-.165.023h-.01a.189.189 0 01-.07.014c-.765-.418-1.272-1.282-1.23-2.16v-.005c0-.024 0-.047.005-.07v-.01c0-.019.004-.038.004-.052v-.005c.005-.065.01-.154.028-.22.015-.09.038-.179.062-.263 0-.005 0-.005.004-.01 0-.004.005-.01.005-.014.047-.16.117-.3.188-.45.037-.066.075-.132.122-.198.122-.188.277-.357.456-.498a.638.638 0 01.169-.127.319.319 0 01.056-.037.18.18 0 01.042-.024 3.137 3.137 0 002.085.794h.015c.014.179.033.437.117.601.01.033.019.066.033.104 0 .004.005.004.005.009.009.033.023.066.033.103.131.376.338.728.6 1.034zm-.159-8.247c0-.004.005-.01.005-.014v-.005c1.117-2.047 4.26-1.131 4.288 1.137v.019c0 .545-.188 1.07-.517 1.498l-.01.01a2.32 2.32 0 01-.253.272c-.62-.202-1.475-.24-2.076.061-.09.033-.432.254-.507.249-.122-.005-.31-.207-.395-.277a2.317 2.317 0 01-.629-.855c0-.005-.005-.01-.005-.01-.281-.666-.216-1.521.08-2.066-.023.056-.019.047.019-.019 0-.004-.07.132 0 0zM10.411 8.64c.84 0 1.61.48 2.01 1.23-.005.01-.005.015-.01.024l-.013.033c-1.64.155-2.894 1.62-2.917 3.246a1.997 1.997 0 01-.526-.334c-.019-.014-.033-.028-.052-.042-1.69-1.273-.498-4.157 1.508-4.157zM7.64 12.68c.005.004.005.009.01.014.056.098.14.253.225.338l.037.051.029.033c.014.014.023.033.037.047.249.3.578.587.935.761.188.099.568.146.714.277.15.132.249.606.366.794a2.35 2.35 0 00-.446.362c-.01.004-.014.014-.024.018l-.037.038a3.26 3.26 0 00-.545.737c0 .005-.005.01-.005.01a.171.171 0 00-.07.136c-.01.023-.024.047-.033.07v.005a3.09 3.09 0 00-.09.22c-.023.062-.051.128-.06.193l-.015.057-.014.056c0 .005-.004.014-.004.019a.137.137 0 00-.01.042v.01c-.023.103-.033.21-.06.314v.029l-.076.013a2.184 2.184 0 01-.554.024h-.005c-.023 0-.042-.005-.066-.005h-.014a2.286 2.286 0 01-.798-.253.845.845 0 00-.127-.07c-.023-.015-.047-.029-.07-.048-.02-.014-.038-.023-.052-.037h-.005l-.136-.108c-1.437-1.198-.892-3.744.963-4.148-.01-.014-.404.09-.46.104.155-.042.31-.07.46-.104.005.005-1.038.226 0 0zm-1.278 5.072c.16.108.475.338.672.338a3.1 3.1 0 00.897.188c.15.01.329.023.48-.01.112-.07.168-.075.168-.018.075.483.259 1.07.587 1.446.146.202.31.385.498.55l.005.005c-.47.29-1.362 1.06-1.362 1.68a2.04 2.04 0 01-.338.062c-.01 0-.02 0-.029.005-2.254.206-3.31-2.884-1.578-4.246.005.005-.21.225-.244.202 0 0 .315-.254.244-.202.08.052-.563.446 0 0zm.836 8.966c-1.188 0-2.099-.944-2.24-2.095a2.429 2.429 0 01.324-1.564c.118-.193.334-.535.554-.61.259-.09.738.248 1.043.352a2.9 2.9 0 001.062.117l.178-.014c-.024.4.028.831.164 1.207.052.165.113.343.202.489a2.7 2.7 0 00.47.685c.235.273.263.259.028.56a2.25 2.25 0 01-1.785.874zm6.388-3.25c0 .004 0 .004 0 0-.291 1.78-2.48 2.588-3.8 1.329-.591-.568-.939-1.405-.723-2.217.207-.765.836-1.677 1.695-1.803.428-.113 1.292-.15 1.64.197h.004c.883.483 1.339 1.582 1.189 2.46.004-.042.004-.032-.005.034 0 .004.019-.127 0 0zm1.747-.052a2.21 2.21 0 01-.798-.15 2.323 2.323 0 000-.4 4.073 4.073 0 00-.052-.408.543.543 0 00-.019-.085v-.004c-.005-.024-.01-.052-.019-.075v-.005c-.117-.432-.352-1.17-.751-1.437a.736.736 0 00-.056-.061l-.029-.033a3.1 3.1 0 00-.465-.4c0-.004.005-.009.005-.014l.014-.042c.043-.14.108-.291.183-.423a2.124 2.124 0 01.475-.605c.01-.01.018-.02.033-.029a.075.075 0 01.018-.014c.01-.01.024-.019.033-.028a1.8 1.8 0 01.334-.23c.507.32 1.08.479 1.681.479v.019c-.028.47.038.94.197 1.38.09.245.334.893.592 1.024a.05.05 0 00.024.024 2.953 2.953 0 00.343.338c.202.07.216.164.051.287-.07.173-.329.347-.474.455-.39.282-.846.437-1.32.437zm3.78-1.338c-1.427 0-2.474-1.395-2.258-2.767.418-.131.948-.376 1.226-.728.032-.033.065-.06.094-.094l.014-.014a1.97 1.97 0 00.122-.136c.014-.014.023-.028.037-.042a3.116 3.116 0 00.53-.897l.015-.038c1.31-.127 2.456.982 2.503 2.269.047 1.263-.981 2.447-2.282 2.447zm5.332-11.328a.461.461 0 11.001-.923.461.461 0 01-.001.922z"/><path d="M27.803 11.839c-.414-1.7-1.649-3.152-3.678-4.321.291-.442 1.8-3.33.728-3.509-.653-.108-.648 1.029-.77 1.428-.207.681-.512 1.334-.953 1.898-.855 1.122-2.278 1.756-3.673 1.756-.395-.023-.634.475-.371.77.183.202.493.16.742.146a5.7 5.7 0 002.578-.812c-.887 3.297 1.297 5.762 3.899 7.43.004.004.009.004.014.01.075.046.183.07.272.06.005 0 .014 0 .023-.005.02 0 .033-.004.052-.009.028-.005.056-.019.085-.028.004 0 .004-.005.01-.005.004 0 .004-.005.009-.005a.434.434 0 00.164-.14s.005-.005.005-.01c.051-.084 1.47-2.16.864-4.654-.414-1.7.606 2.494 0 0zm-1.15 3.165a85.674 85.674 0 00-.762-2.348c-.127-.376-.286-1.292-.78-1.348-.803-.09-.366.869-.234 1.235.3.836.563 1.691.831 2.537-1.038-.804-2.029-1.813-2.423-3.096-.386-1.24-.076-2.489.39-3.658 2.442 1.409 4.09 3.813 2.977 6.678-.385-1.226 0 0 0 0z"/></symbol><symbol viewBox="0 0 24 24.56" id="offer--nut" xmlns="http://www.w3.org/2000/svg"><path d="M25.89 9.773a.37.37 0 00-.605.422c1.286 1.828 1.967 3.928 1.967 6.082 0 2.787-1.146 5.482-3.233 7.597-1.573 1.592-3.597 2.782-5.851 3.458-.451-.364-.724-1.089-.85-2.283a2.561 2.561 0 003.746-.269c.063.005.125.005.188.005a2.574 2.574 0 002.494-3.199 4.124 4.124 0 001.717-1.323c.537-.71.82-1.56.82-2.451 0-.888-.288-1.746-.815-2.451.513-.48.81-1.156.81-1.875a2.556 2.556 0 00-2.091-2.523 2.565 2.565 0 00-1.885-2.413 2.961 2.961 0 00-2.849-2.158c-.657 0-1.266.216-1.755.58.273-.647.647-1.194 1.098-1.554 2.182.763 4.115 2.015 5.597 3.655a.371.371 0 00.552-.494c-2.22-2.45-5.381-4.081-8.897-4.575a.389.389 0 00-.106 0c-3.29.465-6.307 1.942-8.494 4.158C5.223 10.416 4 13.299 4 16.277c0 2.978 1.223 5.86 3.448 8.115 2.187 2.216 5.204 3.693 8.5 4.158.018.005.033.005.052.005.02 0 .034 0 .053-.005 3.29-.465 6.307-1.942 8.499-4.158C26.772 22.138 28 19.255 28 16.277c-.01-2.302-.734-4.552-2.11-6.504zm-6.437-2.638c1.065 0 1.981.758 2.178 1.799a.368.368 0 00.297.293 1.824 1.824 0 011.51 1.707 2.546 2.546 0 00-1.553.739.37.37 0 00.259.633.364.364 0 00.259-.11 1.821 1.821 0 011.295-.538c.01 0 .019 0 .024-.005.019.005.033.005.053.005.983.043 1.75.844 1.75 1.828 0 .508-.21.983-.57 1.328a4.014 4.014 0 00-2.754-1.079.366.366 0 00-.369.37c0 .206.163.369.37.369a3.32 3.32 0 012.364.978c.02.02.038.034.058.048a.517.517 0 00.043.062 3.32 3.32 0 01.873 2.255 3.31 3.31 0 01-.672 2.01 3.4 3.4 0 01-1.41 1.083 2.567 2.567 0 00-2.211-1.256c-.686 0-1.333.268-1.818.753a.37.37 0 00.523.522 1.821 1.821 0 011.295-.537 1.826 1.826 0 011.832 1.827c0 .93-.695 1.698-1.597 1.813a2.61 2.61 0 00.149-.863.366.366 0 00-.37-.37.366.366 0 00-.369.37 1.833 1.833 0 01-1.827 1.827 1.835 1.835 0 01-1.832-1.832c0-.508.206-.983.575-1.333a.369.369 0 00.038-.494 2.864 2.864 0 01-.613-1.784c0-.902.407-1.736 1.117-2.293l.01-.01a2.875 2.875 0 011.78-.608.367.367 0 00.368-.37.366.366 0 00-.369-.37c-.715 0-1.39.202-1.98.586a3.444 3.444 0 01-.922-2.34c0-.912.355-1.765.993-2.413 0 0 0-.005.005-.005a3.418 3.418 0 012.437-1.017.366.366 0 00.369-.369.366.366 0 00-.37-.37 4.136 4.136 0 00-2.719 1.008 2.225 2.225 0 01-.715-1.63 2.22 2.22 0 012.216-2.217zM4.74 16.277c0-2.787 1.146-5.482 3.232-7.597 1.425-1.444 3.223-2.556 5.223-3.257.451.36.83.902 1.099 1.55a2.96 2.96 0 00-4.605 1.582 2.566 2.566 0 00-1.885 2.413 2.564 2.564 0 00-2.09 2.522c0 .715.297 1.391.81 1.876a4.078 4.078 0 00-.806 2.714c.014.202.192.36.393.346a.37.37 0 00.346-.394c-.005-.072-.005-.143-.005-.215 0-.835.312-1.636.873-2.255a.183.183 0 00.043-.062.415.415 0 00.057-.048 3.32 3.32 0 012.365-.978c.206 0 .37-.163.37-.37a.366.366 0 00-.37-.369 4.05 4.05 0 00-2.767 1.084 1.83 1.83 0 011.18-3.156c.019 0 .033-.005.052-.005.01.005.02.005.024.005.49 0 .95.192 1.295.537.072.072.168.11.26.11a.37.37 0 00.259-.633 2.547 2.547 0 00-1.555-.738 1.828 1.828 0 011.511-1.708.362.362 0 00.297-.292 2.224 2.224 0 012.178-1.799c1.223 0 2.22.998 2.22 2.22 0 .624-.263 1.21-.714 1.632a4.136 4.136 0 00-2.72-1.008.366.366 0 00-.369.37c0 .206.163.369.37.369a3.398 3.398 0 012.44 1.022c.643.647.993 1.506.993 2.412a3.43 3.43 0 01-.93 2.345 3.602 3.602 0 00-1.98-.585.366.366 0 00-.37.37c0 .206.163.369.37.369.651 0 1.265.21 1.778.609l.01.01a2.895 2.895 0 011.118 2.292c0 .652-.211 1.271-.614 1.784a.369.369 0 00.038.494c.37.35.576.825.576 1.334 0 1.007-.82 1.832-1.833 1.832a1.827 1.827 0 01-1.827-1.828.366.366 0 00-.37-.369.366.366 0 00-.368.37c0 .297.052.59.148.863a1.833 1.833 0 01-1.597-1.813 1.826 1.826 0 011.832-1.827c.49 0 .95.191 1.295.537a.37.37 0 00.523-.523 2.573 2.573 0 00-4.029.504 3.376 3.376 0 01-1.75-1.64.375.375 0 00-.494-.174.375.375 0 00-.173.494 4.106 4.106 0 002.13 2 2.574 2.574 0 002.494 3.2c.062 0 .124 0 .187-.005a2.561 2.561 0 003.745.268c-.124 1.195-.398 1.914-.849 2.283-2.254-.676-4.278-1.865-5.851-3.458-2.062-2.134-3.213-4.83-3.213-7.616zm11.256 11.535c-.46-.067-.911-.154-1.357-.26.604-.776.858-2.129.858-4.383 0-.595-.21-1.175-.585-1.63.384-.59.585-1.272.585-1.981 0-.988-.393-1.919-1.088-2.6a4.184 4.184 0 001.088-2.81c0-.97-.33-1.89-.935-2.634.59-.556.935-1.338.935-2.158 0-.93-.182-1.851-.522-2.671-.255-.605-.58-1.118-.964-1.516A15.288 15.288 0 0116 4.742c.681.1 1.343.24 1.99.427a4.89 4.89 0 00-.964 1.516 7.017 7.017 0 00-.522 2.671c0 .82.345 1.602.935 2.158a4.157 4.157 0 00-.935 2.634c0 1.04.393 2.047 1.088 2.81a3.626 3.626 0 00-1.088 2.6c0 .714.201 1.39.585 1.98a2.582 2.582 0 00-.585 1.631c0 2.25.254 3.602.858 4.384-.455.105-.906.192-1.367.259z"/></symbol><symbol class="athidden" viewBox="0 0 0 0" id="offer--sprite"/><symbol class="auhidden" viewBox="0 0 0 0" id="offer--sprite-composition"/><symbol viewBox="0 0 32 19.98" id="offer--washing-powder" xmlns="http://www.w3.org/2000/svg"><path d="M8.481 11.45a.469.469 0 100-.938.469.469 0 000 .938zm3.007 0a.469.469 0 100-.937.469.469 0 000 .937zm-1.507 1.969a.469.469 0 100-.938.469.469 0 000 .938zm3.007 0a.469.469 0 100-.938.469.469 0 000 .938zm-9.05 0a.469.469 0 100-.938.469.469 0 000 .938zm3.037 0a.469.469 0 100-.938.469.469 0 000 .938zm3.006-3.944a.469.469 0 100-.938.469.469 0 000 .938zm-3.006 0a.469.469 0 100-.938.469.469 0 000 .938zM5.506 11.45a.469.469 0 100-.938.469.469 0 000 .938z"/><path d="M30.525 14.019h-4.469a.468.468 0 100 .937h4.469a.53.53 0 01.531.532v.156a.53.53 0 01-.444.525L16.42 18.53a.47.47 0 00-.394.463V21.5a3.542 3.542 0 01-3.537 3.538h-8.02A3.542 3.542 0 01.932 21.5v-6.544h22.813a.468.468 0 100-.937h-6.938a21.93 21.93 0 00-2.062-3.806C12.856 7.456 10.688 6 8.48 6 6.275 6 4.1 7.456 2.206 10.213.813 12.238.056 14.238.025 14.319v.006c-.006.013-.006.025-.013.038 0 .006 0 .006-.006.012C0 14.387 0 14.4 0 14.419V21.5a4.478 4.478 0 004.475 4.475h8.019a4.478 4.478 0 004.475-4.475v-2.106l13.8-2.3A1.47 1.47 0 0032 15.644v-.156a1.48 1.48 0 00-1.475-1.47zM8.481 6.937c3.832 0 6.488 5.232 7.313 7.075H1.169c.819-1.843 3.475-7.075 7.312-7.075z"/></symbol><symbol viewBox="0 0 76.12 114.78" id="player--active-btn" xmlns="http://www.w3.org/2000/svg"><path d="M72.014 61.708l-58.159 46.336c-5.56 4.41-13.74.447-13.74-6.647V8.727c0-7.095 8.18-11.058 13.74-6.648l58.16 46.336c4.218 3.387 4.218 9.906 0 13.293z"/></symbol><symbol viewBox="0 0 11.07 16.69" id="player--play-btn" xmlns="http://www.w3.org/2000/svg"><path d="M11.407 9.429l-8.46 6.74c-.808.641-1.998.065-1.998-.967V1.722c0-1.03 1.19-1.607 1.998-.965l8.46 6.74c.614.492.614 1.44 0 1.933z"/></symbol><symbol viewBox="0 0 11.95 11.92" id="player--playback-btn" xmlns="http://www.w3.org/2000/svg"><path fill-rule="evenodd" clip-rule="evenodd" d="M6.745.078c3.299 0 5.973 2.668 5.973 5.96s-2.674 5.963-5.973 5.963C3.445 12 .77 9.33.77 6.038c0-3.292 2.675-5.96 5.974-5.96z"/></symbol><symbol viewBox="0 0 12.83 16.7" id="player--volume" xmlns="http://www.w3.org/2000/svg"><path d="M11.188.766L5.016 5.674a3.132 3.132 0 00-1.497-.372 3.158 3.158 0 00-3.16 3.16 3.158 3.158 0 003.16 3.161c.54 0 1.05-.14 1.497-.372l6.172 4.918c.809.641 1.999.065 1.999-.967V1.723c0-1.032-1.19-1.608-1.999-.957z"/></symbol><symbol viewBox="0 0 11.95 11.92" id="player--volume-btn" xmlns="http://www.w3.org/2000/svg"><path fill-rule="evenodd" clip-rule="evenodd" d="M6.745.078c3.299 0 5.973 2.668 5.973 5.96s-2.674 5.963-5.973 5.963C3.445 12 .77 9.33.77 6.038c0-3.292 2.675-5.96 5.974-5.96z"/></symbol><symbol viewBox="0 0 39.38 30.95" id="preview--auto" xmlns="http://www.w3.org/2000/svg"><path d="M6.848 12.633l2.164-1.731h.216c.65 0 1.082-.433 1.082-1.082 0-.433-.216-.65-.433-.866V4.41H8.795v4.544c-.433.216-.649.433-.649.866v.216l-2.164 1.731.866.866z"/><path d="M39.74 24.319v-6.925c0-2.164-.865-3.03-.865-3.03s-2.164-2.813-3.462-4.544c-1.299-1.732-3.03-1.732-3.03-1.732h-7.358V7.006c0-1.514-1.082-2.596-2.596-2.596h-6.276C14.638 2.246 12.04.73 9.228.73 4.468.73.788 4.627.788 9.388c0 1.947.65 3.679 1.732 5.193v9.522c0 1.515 1.082 2.597 2.596 2.597h1.082v.216c0 2.597 2.164 4.761 4.761 4.761s4.761-2.164 4.761-4.76V26.7h10.82v.216c0 2.597 2.164 4.761 4.761 4.761s4.76-2.164 4.76-4.76V26.7h.434c3.678.216 3.246-2.38 3.246-2.38zm-1.081-7.575v.65h-8.44c-.433 0-.866-.433-.866-.866v-3.462c0-.433.433-.866.866-.866h5.626c.65.65 1.299 1.515 1.732 2.164 1.082 1.298 1.082 2.38 1.082 2.38zM9.229 2.03c4.11 0 7.573 3.246 7.573 7.574 0 4.328-3.462 7.358-7.574 7.358S1.87 13.498 1.87 9.387c0-4.112 3.246-7.358 7.358-7.358zm1.514 28.565c-1.948 0-3.463-1.515-3.463-3.462 0-1.948 1.515-3.463 3.463-3.463 1.947 0 3.462 1.515 3.462 3.463 0 1.947-1.514 3.462-3.462 3.462zm4.328-4.977c-.65-1.731-2.38-3.246-4.328-3.246-1.948 0-3.679 1.298-4.328 3.246H4.9c-.65 0-1.298-.65-1.298-1.299v-8.656c1.514 1.299 3.462 2.164 5.626 2.164 4.76 0 8.44-3.895 8.44-8.44 0-1.298-.433-2.596-.866-3.678h5.627c.649 0 1.298.65 1.298 1.298V24.32c0 .649-.65 1.298-1.299 1.298h-7.357zm16.014 4.977c-1.948 0-3.463-1.515-3.463-3.462 0-1.948 1.515-3.463 3.463-3.463 1.947 0 3.462 1.515 3.462 3.463 0 1.947-1.515 3.462-3.462 3.462zm5.41-4.76h-.866c-.65-1.948-2.38-3.247-4.328-3.247-2.164 0-3.895 1.299-4.328 3.246h-2.164c.433-.432.65-.865.65-1.514V8.954h6.708c1.947 0 2.813 1.298 2.813 1.298s-.217.433.216.866H30.22c-1.082 0-1.731.866-1.731 1.731v3.463c0 1.082.865 1.73 1.731 1.73h8.656v5.627c-.216 2.38-2.38 2.164-2.38 2.164z"/></symbol><symbol viewBox="0 0 36.44 35.71" id="preview--bag" xmlns="http://www.w3.org/2000/svg"><path d="M10.568 7.167c0 .486.972.972 2.43.972 1.457 0 2.428-.486 2.428-.972s-.971-.972-2.429-.972c-1.214 0-2.43.243-2.43.972z"/><path d="M36.803 16.155a4.354 4.354 0 00-4.372-4.373H10.082s-5.83.243-8.502-4.372c.243-3.4 2.915-5.83 6.316-5.83h9.717c3.643 0 6.315 2.915 6.315 6.316V9.11h1.215v-.97c0-4.373-3.4-7.774-7.773-7.774H8.139C3.766.365.365 3.766.365 8.14v11.417c0 4.372 3.401 7.773 7.774 7.773h1.7v-1.214H7.896c-3.644 0-6.316-2.915-6.316-6.316V9.597c.729.97 3.158 3.4 8.26 3.4h22.59c1.7 0 2.915 1.215 2.915 2.915v1.943c0 1.7-1.215 2.915-2.915 2.915H16.884a4.354 4.354 0 00-4.373 4.373v6.559a4.354 4.354 0 004.373 4.372H32.43a4.354 4.354 0 004.372-4.372V16.155zm-1.457 16.033c0 1.7-1.215 2.915-2.915 2.915H16.64c-1.7 0-2.915-1.215-2.915-2.915v-7.045c0-1.7 1.214-2.915 2.915-2.915h4.615v4.13h1.215v-4.13h7.773v4.13h1.215v-4.13h.972c1.214 0 2.429-.486 3.158-1.215v11.175h-.243z"/></symbol><symbol viewBox="0 0 38.14 35.71" id="preview--leaf" xmlns="http://www.w3.org/2000/svg"><path d="M6.687 24.47c0 .487.243.973.243 1.458 0 1.944.242 5.102.242 5.102h1.215s0-5.102-.729-7.774c-.728-2.915-.971-8.259.729-12.146l-1.215-.485s-1.457 2.915-1.457 7.53c0 2.915.243 4.13.486 5.344-.972-.729-3.644-3.158-3.401-8.259.486-5.83 5.587-11.174 5.587-11.174s8.988 8.502.972 17.976l.971.728s3.644-4.13 3.644-8.745c0-4.615-1.943-8.502-5.587-11.66 0 0-6.316 6.073-6.802 13.36-.243 6.803 4.859 9.232 4.859 9.232l.243-.486z"/><path d="M19.318 18.155c-8.988 2.672-8.502 11.417-8.259 13.36-3.158 3.158-4.615 6.074-4.615 6.074l.971.485c9.231-15.303 23.563-12.388 23.563-12.388V24.47c-8.745-.972-14.818 2.43-18.947 5.83-.243-3.158 1.214-10.688 10.445-11.417 10.689-.243 15.79 6.073 15.79 6.073-5.587 8.988-11.903 10.202-15.79 10.688-4.13.729-9.23-2.186-9.23-2.186l-.486.972s4.372 2.915 9.96 2.429c12.145-1.458 16.76-12.146 16.76-12.146-1.214-2.43-10.202-8.988-20.162-6.559z"/></symbol><symbol class="behidden" viewBox="0 0 0 0" id="preview--sprite"/></svg>