<svg>
  <symbol  xmlns="http://www.w3.org/2000/svg"  id="hand">
    <path d="M49.937 8.45c-6.027 0-13.776 4.305-13.489 13.201 0 0-11.766-3.73-15.21 8.61 0 0-2.01-4.305-4.592-6.313-2.87-2.01-6.314-7.175-6.601-9.758.287-1.435.574-1.435 1.148-1.722.287 0 .287 2.296 2.87 2.583 2.296-.287 2.87-.861 3.73-2.01l2.584-2.87s2.583-3.443.287-5.165c-2.01-2.01-5.74-5.74-10.332-4.88C7.749.702 5.74 2.71 5.74 2.71L2.296 5.867S0 8.163 0 12.755c0 4.018.861 10.618.861 10.618l1.148 6.888c.287 1.722 2.583 11.767 8.036 17.22 3.444 4.018 5.453 5.74 7.175 6.027 2.87 0 4.305-1.722 6.6-1.722 2.297 0 4.593 1.722 9.471 1.722 4.88 0 15.785-2.87 20.377-16.933C57.973 34.853 64 31.696 64 22.225c0-9.47-8.323-13.775-14.063-13.775zm2.01 26.403C48.788 47.481 38.743 50.925 33.864 51.5c-4.592 0-7.174-1.722-10.618-1.722-2.01 0-4.88 1.722-5.74 1.722-.861 0-3.157-2.009-6.027-5.166-2.87-3.157-4.018-6.027-5.166-8.323-1.148-2.296-3.157-11.48-3.157-11.48s-.861-9.183-.861-13.201c0-3.731 1.722-6.027 1.722-6.027L8.61 3.284c2.583-2.01 5.74-.574 5.74-.574s3.157 2.009 4.305 3.157c1.435 1.148 0 2.296 0 2.296s-3.157 4.018-4.305 4.305c-1.435.287-1.722-3.157-1.722-3.157-1.435.574-3.731 1.148-4.592 3.73-.861 3.158 3.73 9.758 7.175 12.915 3.157 3.157 5.166 8.323 5.166 8.323l2.583-.86s-.287-6.028 4.879-9.184c5.74-3.157 10.905 1.148 10.905 1.148-1.722-14.35 10.906-14.637 11.767-14.637.861 0 10.906.86 11.767 10.905-.574 11.48-10.332 13.202-10.332 13.202z"></path>
  </symbol>
  <symbol  xmlns="http://www.w3.org/2000/svg"  id="man">
    <path d="M60.03 19.665c.69-.69 1.38-1.38 1.725-2.07 2.415-3.105 2.07-4.485-.345-6.555-2.415-2.07-6.21 1.035-6.21 1.035l-.69.69c-3.795-3.45-8.625-6.21-14.145-7.59C38.295 2.07 35.19 0 31.74 0c-3.795 0-6.9 2.415-8.97 5.52-4.485 1.38-8.625 3.795-12.075 6.9-.69-.345-2.07-1.725-3.795-2.07-2.415-.345-4.83 1.38-5.175 3.795 0 1.38 1.38 3.45 3.105 5.52C1.725 24.495 0 30.015 0 36.225 0 53.82 14.49 68.31 32.43 68.31c6.21 0 12.42-1.725 17.25-4.83l-1.035-2.415c-4.485-11.385-3.45-18.63-3.105-22.08 1.035-3.795 4.83-8.97 6.9-11.73 1.38-1.725 3.45-3.45 5.52-5.52 2.76 4.14 4.14 8.97 4.14 14.49 0 7.935-3.45 15.18-8.625 20.7l2.07 1.725c5.865-5.865 9.315-13.8 9.315-22.425 0-6.21-1.725-11.73-4.83-16.56zM31.74 2.76c4.485 0 7.935 4.14 7.935 9.315s-3.45 9.315-7.935 9.315c-4.485 0-7.935-3.795-7.935-9.315s3.45-9.315 7.935-9.315zm0 21.39c5.865 0 10.695-5.52 10.695-12.075 0-1.38-.345-2.415-.69-3.795 4.14 1.38 7.59 3.45 10.695 6.21-2.76 2.415-6.9 5.52-8.97 6.9-3.105 2.415-8.28 4.83-12.42 4.83-4.14 0-6.21-1.725-9.315-3.105-2.76-1.38-7.245-6.555-9.315-8.625 2.76-2.415 5.865-4.14 8.97-5.52 0 1.035-.345 2.07-.345 3.105 0 6.9 4.83 12.075 10.695 12.075zM2.76 36.225c0-5.175 1.38-10.005 3.795-14.49L7.59 22.77s8.625 10.005 10.35 12.42c1.725 2.415-.345 4.14-1.725 10.35-1.035 4.83-1.035 11.385-1.035 14.49C7.59 54.51 2.76 45.885 2.76 36.225zm53.475-16.56c-1.38 1.38-6.21 5.52-10.35 12.075s-3.45 11.73-3.105 15.525c.345 3.795 1.38 7.245 1.725 8.625.345 1.035 1.725 4.83 2.07 5.865-4.14 2.07-8.97 3.45-13.8 3.45-5.52 0-10.35-1.38-14.835-3.795 0-11.73.69-13.455 1.035-15.18 0-1.725 1.035-5.175 2.07-7.935.69-2.415-.345-4.485-1.38-5.52C18.63 31.74 8.625 19.665 6.9 17.25c-2.07-2.415-2.415-3.45-.69-4.14 1.725-1.035 6.21 4.485 8.28 6.9 1.725 2.415 9.66 8.97 16.905 8.625 7.245-.345 12.42-4.14 14.49-5.52 1.725-1.38 10.695-8.625 12.075-9.66 1.38-1.035 3.105 0 2.76 1.035-.345 1.035-3.105 3.795-4.485 5.175z"></path>
  </symbol>
  <symbol  xmlns="http://www.w3.org/2000/svg"  id="smile">
    <path d="M32 0C14.431 0 0 14.431 0 32c0 17.569 14.431 32 32 32 17.569 0 32-14.431 32-32C64 14.431 49.569 0 32 0zm0 61.49C15.686 61.49 2.51 48.314 2.51 32S15.686 2.51 32 2.51 61.49 15.686 61.49 32 48.314 61.49 32 61.49z" fill="#2C2E2D"></path>
    <path d="M32 48.627c-10.98 0-17.569-9.725-17.569-9.725l-2.196 1.569C21.02 51.765 32 51.45 32 51.45s10.98.627 19.765-10.98l-2.196-1.569S42.98 48.627 32 48.627zM21.333 35.451c7.53-3.451 8.785-7.843 8.785-10.04 0-2.509-1.569-5.333-4.392-5.333-3.138 0-4.393 1.57-4.393 1.57s-1.255-1.57-4.392-1.57c-2.823 0-4.392 3.138-4.392 5.334 0 2.196 1.255 6.588 8.784 10.039zm0-10.667c1.569-2.51 5.961-2.823 6.275.314 0 4.392-6.275 7.53-6.275 7.53s-6.274-3.138-6.274-7.53c.314-3.137 4.706-2.823 6.274-.314zm21.334 10.667c7.529-3.451 8.784-7.843 8.784-9.726 0-2.51-1.569-5.333-4.392-5.333-3.137 0-4.392 1.569-4.392 1.569s-1.255-1.569-4.392-1.569c-2.824 0-4.393 3.137-4.393 5.334 0 1.882 1.255 6.274 8.785 9.725zm0-10.667c1.568-2.51 5.96-2.823 6.274.314 0 4.392-6.274 7.53-6.274 7.53s-6.275-3.138-6.275-7.53c.314-3.137 4.706-2.823 6.275-.314z"></path>
  </symbol>
</svg>